<svg viewBox="0 0 16 16" fill="none" xmlns="http://www.w3.org/2000/svg">
    <path d="M1.89149 4.89517L3.95575 2.87258C4.117 2.71465 4.37857 2.7147 4.53972 2.87258L6.6039 4.89517C6.86379 5.14975 6.67872 5.58571 6.3119 5.58571H5.07362V13.6758C5.07362 13.8993 4.88875 14.0804 4.66068 14.0804H3.83481C3.60674 14.0804 3.42188 13.8993 3.42188 13.6758V5.58571H2.18349C1.81595 5.58571 1.63214 5.14925 1.89149 4.89517ZM7.96416 4.37219H14.5711C14.7992 4.37219 14.984 4.1911 14.984 3.96768V3.15867C14.984 2.93526 14.7992 2.75416 14.5711 2.75416H7.96416C7.73609 2.75416 7.55122 2.93526 7.55122 3.15867V3.96768C7.55122 4.1911 7.73609 4.37219 7.96416 4.37219ZM7.55122 7.20374V6.39472C7.55122 6.17131 7.73609 5.99022 7.96416 5.99022H12.9194C13.1474 5.99022 13.3323 6.17131 13.3323 6.39472V7.20374C13.3323 7.42715 13.1474 7.60824 12.9194 7.60824H7.96416C7.73609 7.60824 7.55122 7.42715 7.55122 7.20374ZM7.55122 13.6758V12.8668C7.55122 12.6434 7.73609 12.4623 7.96416 12.4623H9.6159C9.84396 12.4623 10.0288 12.6434 10.0288 12.8668V13.6758C10.0288 13.8993 9.84396 14.0804 9.6159 14.0804H7.96416C7.73609 14.0804 7.55122 13.8993 7.55122 13.6758ZM7.55122 10.4398V9.63078C7.55122 9.40736 7.73609 9.22627 7.96416 9.22627H11.2676C11.4957 9.22627 11.6806 9.40736 11.6806 9.63078V10.4398C11.6806 10.6632 11.4957 10.8443 11.2676 10.8443H7.96416C7.73609 10.8443 7.55122 10.6632 7.55122 10.4398Z" fill="#C5C7CD" />
</svg>