<svg width="18" height="19" viewBox="0 0 18 19" xmlns="http://www.w3.org/2000/svg">
    <path fill-rule="evenodd" clip-rule="evenodd" d="M5.74279 3.14021C5.80945 2.67478 5.95167 2.41808 6.15317 2.24537C6.48849 1.95796 7.21294 1.7 8.85 1.7C10.4871 1.7 11.2115 1.95796 11.5468 2.24537C11.7486 2.41835 11.891 2.67559 11.9575 3.1424C11.0513 3.03944 10.0186 3 8.85 3C7.68 3 6.64775 3.03957 5.74279 3.14021ZM4.00888 3.45318C4.05283 2.52765 4.2767 1.61474 5.04683 0.954632C5.87818 0.242044 7.15372 0 8.85 0C10.5463 0 11.8218 0.242044 12.6532 0.954632C13.4263 1.6173 13.6489 2.53473 13.6916 3.46395C14.5772 3.71093 15.3276 4.0842 15.9304 4.6477C17.1114 5.75158 17.5378 7.40944 17.6592 9.58894C17.6857 9.67119 17.7 9.75892 17.7 9.85C17.7 10.0077 17.6969 10.1669 17.6887 10.3266C17.6966 10.6293 17.7 10.9411 17.7 11.2618C17.7 13.6966 17.3821 15.6946 15.9163 17.0041C14.4893 18.279 12.1874 18.7 8.85 18.7C7.16518 18.7 5.76601 18.618 4.62124 18.3896C3.47222 18.1605 2.52022 17.7727 1.78468 17.1176C0.305254 15.8 0 13.6722 0 10.85C0 10.6298 0.00185792 10.4139 0.00598635 10.2022C0.00173933 10.0842 0 9.96671 0 9.85C0 9.78308 0.00773264 9.71797 0.0223531 9.65551C0.114542 7.42214 0.521837 5.70715 1.78468 4.58244C2.38529 4.04752 3.13021 3.69082 4.00888 3.45318ZM1.707 10.191C1.76094 7.76923 2.12968 6.55165 2.91532 5.85194C3.34644 5.46797 3.97778 5.17218 4.95376 4.97753C5.93399 4.78202 7.20148 4.7 8.85 4.7C10.4993 4.7 11.7642 4.78216 12.7414 4.98298C13.7123 5.1825 14.3392 5.48735 14.7696 5.88962C15.5417 6.61136 15.9146 7.86518 15.9868 10.309C15.9637 10.6753 15.9086 10.9713 15.8113 11.2195C15.687 11.5368 15.4782 11.8158 15.0762 12.0652C14.1934 12.613 12.4192 13 8.85604 13C5.29323 13 3.51523 12.6131 2.62895 12.0647C2.22503 11.8147 2.01501 11.5351 1.88996 11.2179C1.78195 10.944 1.72552 10.6117 1.707 10.191ZM15.8326 13.593C15.6514 14.5923 15.3147 15.2619 14.7837 15.7363C13.8774 16.546 12.1793 17 8.85 17C7.20148 17 5.93399 16.918 4.95376 16.7225C3.97778 16.5278 3.34644 16.232 2.91532 15.8481C2.3977 15.3871 2.06105 14.7013 1.87617 13.5944C3.22571 14.3616 5.4184 14.7 8.85604 14.7C12.2947 14.7 14.4857 14.3614 15.8326 13.593ZM6 10.85C6 10.3806 6.38056 10 6.85 10H10.85C11.3194 10 11.7 10.3806 11.7 10.85C11.7 11.3194 11.3194 11.7 10.85 11.7L6.85 11.7C6.38056 11.7 6 11.3194 6 10.85Z" />
</svg>