<svg width="18" height="20" viewBox="0 0 18 20" fill="none" xmlns="http://www.w3.org/2000/svg">
<path fill-rule="evenodd" clip-rule="evenodd" d="M3.85002 6.9999C3.85002 5.68101 4.29061 4.38991 5.13533 3.43961C5.96613 2.50496 7.23068 1.8499 9.00003 1.8499C10.7694 1.8499 12.0339 2.50496 12.8647 3.43961C13.7094 4.38991 14.15 5.68101 14.15 6.9999C14.15 8.25949 14.7766 9.1981 15.2542 9.91362L15.2928 9.9714C15.8111 10.7488 16.15 11.2937 16.15 11.9999C16.15 12.9742 15.4563 13.7577 14.0165 14.3362C12.599 14.9057 10.7185 15.1499 9.00003 15.1499C7.28156 15.1499 5.40102 14.9057 3.98359 14.3362C2.54375 13.7577 1.85002 12.9742 1.85002 11.9999C1.85002 11.3064 2.17424 10.8296 2.69813 10.0753C3.20176 9.35029 3.85002 8.40775 3.85002 6.9999ZM9.00003 0.149902C6.76938 0.149902 5.03393 0.994849 3.86473 2.31019C2.70944 3.60989 2.15002 5.31879 2.15002 6.9999C2.15002 7.83343 1.79829 8.39089 1.30191 9.1055L1.23218 9.20557C0.762584 9.87836 0.150024 10.756 0.150024 11.9999C0.150024 14.0257 1.67852 15.2421 3.3498 15.9136C5.04348 16.5941 7.16294 16.8499 9.00003 16.8499C10.8371 16.8499 12.9566 16.5941 14.6503 15.9136C16.3215 15.2421 17.85 14.0257 17.85 11.9999C17.85 10.7403 17.2235 9.8017 16.7458 9.08617L16.7073 9.02841C16.189 8.25098 15.85 7.70612 15.85 6.9999C15.85 5.31879 15.2906 3.60989 14.1353 2.31019C12.9661 0.994849 11.2307 0.149902 9.00003 0.149902ZM6.52853 17.2927C6.91605 17.0343 7.43856 17.1362 7.70106 17.5192L7.70739 17.5277C7.71647 17.5396 7.73416 17.562 7.76032 17.5914C7.81324 17.651 7.89698 17.7351 8.01002 17.8199C8.23356 17.9876 8.55903 18.1499 9.00002 18.1499C9.44102 18.1499 9.76649 17.9876 9.99002 17.8199C10.1031 17.7351 10.1868 17.651 10.2397 17.5914C10.2659 17.562 10.2836 17.5396 10.2927 17.5277L10.299 17.5192C10.5615 17.1362 11.084 17.0343 11.4715 17.2927C11.8621 17.5531 11.9677 18.0808 11.7073 18.4714L11 17.9999C11.7073 18.4714 11.7071 18.4717 11.7068 18.472L11.7064 18.4727L11.7054 18.4741L11.7033 18.4773L11.6983 18.4846L11.6849 18.5037C11.6746 18.5183 11.6612 18.5366 11.6449 18.558C11.6123 18.6008 11.5675 18.6565 11.5103 18.7209C11.3966 18.8488 11.2303 19.0147 11.01 19.1799C10.5669 19.5122 9.89237 19.8499 9.00002 19.8499C8.10768 19.8499 7.43315 19.5122 6.99002 19.1799C6.76974 19.0147 6.60348 18.8488 6.48973 18.7209C6.43256 18.6565 6.38775 18.6008 6.35516 18.558C6.33884 18.5366 6.3255 18.5183 6.31512 18.5037L6.30176 18.4846L6.29673 18.4773L6.29462 18.4741L6.29367 18.4727L6.29322 18.472C6.293 18.4717 6.29278 18.4714 7.00002 17.9999L6.29278 18.4714C6.03238 18.0808 6.13793 17.5531 6.52853 17.2927Z" fill="black"/>
</svg>
