<svg width="18" height="19" viewBox="0 0 18 19" fill="none" xmlns="http://www.w3.org/2000/svg">
<path fill-rule="evenodd" clip-rule="evenodd" d="M2.71431 1.8499C2.51316 1.8499 2.30143 1.93721 2.13155 2.12439C1.95919 2.31431 1.85002 2.58809 1.85002 2.88879V16.111C1.85002 16.4117 1.95919 16.6855 2.13155 16.8754C2.30143 17.0626 2.51316 17.1499 2.71431 17.1499H12.15V8.9999V2.88879C12.15 2.58809 12.0409 2.31431 11.8685 2.12439C11.6986 1.93721 11.4869 1.8499 11.2857 1.8499H2.71431ZM2.71431 18.8499H13H15C15.7559 18.8499 16.4808 18.5496 17.0153 18.0152C17.5498 17.4807 17.85 16.7558 17.85 15.9999V8.9999C17.85 8.53046 17.4695 8.1499 17 8.1499H13.85V2.88879C13.85 2.18757 13.598 1.50045 13.1273 0.9819C12.6542 0.460605 11.9939 0.149902 11.2857 0.149902H2.71431C2.00615 0.149902 1.34581 0.460605 0.872699 0.9819C0.402078 1.50045 0.150024 2.18757 0.150024 2.88879V16.111C0.150024 16.8122 0.402078 17.4993 0.872699 18.0179C1.34581 18.5392 2.00615 18.8499 2.71431 18.8499ZM13.85 17.1499V9.8499H16.15V15.9999C16.15 16.3049 16.0289 16.5974 15.8132 16.8131C15.5975 17.0287 15.305 17.1499 15 17.1499H13.85ZM5.00002 5.1499C4.53058 5.1499 4.15002 5.53046 4.15002 5.9999C4.15002 6.46934 4.53058 6.8499 5.00002 6.8499H9.00002C9.46947 6.8499 9.85003 6.46934 9.85003 5.9999C9.85003 5.53046 9.46947 5.1499 9.00002 5.1499H5.00002ZM4.15002 8.9999C4.15002 8.53046 4.53058 8.1499 5.00002 8.1499H9.00002C9.46947 8.1499 9.85003 8.53046 9.85003 8.9999C9.85003 9.46935 9.46947 9.8499 9.00002 9.8499H5.00002C4.53058 9.8499 4.15002 9.46935 4.15002 8.9999ZM5.00002 12.1499C4.53058 12.1499 4.15002 12.5305 4.15002 12.9999C4.15002 13.4693 4.53058 13.8499 5.00002 13.8499H8.00002C8.46947 13.8499 8.85002 13.4693 8.85002 12.9999C8.85002 12.5305 8.46947 12.1499 8.00002 12.1499H5.00002Z" fill="#11294C"/>
</svg>
