<svg width="22" height="22" viewBox="0 0 22 22" fill="none" xmlns="http://www.w3.org/2000/svg">
    <path d="M10.9955 0.782609C5.35542 0.782609 0.782609 5.36306 0.782609 11C0.782609 16.6369 5.35542 21.2174 10.9955 21.2174C16.6445 21.2174 21.2174 16.6371 21.2174 11C21.2174 5.36293 16.644 0.782609 10.9955 0.782609ZM10.9955 1.73261C16.1258 1.73261 20.2672 5.88118 20.2672 10.9998C20.2672 16.1184 16.1258 20.267 10.9955 20.267C5.8747 20.267 1.73281 16.1185 1.73281 10.9998C1.73281 5.88105 5.8747 1.73261 10.9955 1.73261Z" fill="black" stroke="black" stroke-width="0.434783" />
    <path d="M6.07868 6.78183C6.0761 6.81898 6.07755 6.85963 6.08518 6.90101L6.03085 6.95103L6.19388 7.11122L10.315 11.1604L6.24941 15.2009L6.24046 15.2098L6.23259 15.2197C6.14152 15.3341 6.08692 15.4643 6.09817 15.6003C6.10969 15.7394 6.18699 15.8453 6.28062 15.9106C6.45161 16.0298 6.7227 16.0437 6.90851 15.8811L6.90879 15.8815L6.91847 15.8718L10.996 11.8272L15.129 15.8804L15.1421 15.8933L15.1573 15.9038C15.273 15.9841 15.4018 16.0158 15.5267 15.9966C15.6485 15.9779 15.75 15.9134 15.8203 15.8308C15.9549 15.6726 16.0056 15.392 15.793 15.1968L11.675 11.1507L15.7484 7.11012L15.7485 7.11018L15.7525 7.10596C15.8477 7.00635 15.8939 6.88292 15.8832 6.75599C15.8731 6.63464 15.8131 6.53199 15.7373 6.45946C15.5907 6.31914 15.3262 6.24502 15.1031 6.41079L15.0906 6.4201L15.0795 6.4311L10.9945 10.4911L6.86158 6.43023L6.85614 6.42488L6.85033 6.41993C6.74 6.32577 6.60748 6.27961 6.47081 6.30466C6.34157 6.32834 6.24588 6.409 6.18536 6.49204C6.1246 6.57542 6.08586 6.67843 6.07868 6.78183Z" fill="black" stroke="black" stroke-width="0.434783" />
</svg>