<svg width="20" height="20" viewBox="0 0 20 20" fill="none" xmlns="http://www.w3.org/2000/svg">
    <path fill-rule="evenodd" clip-rule="evenodd" d="M1.84999 9.9999C1.84999 5.49878 5.49887 1.8499 9.99999 1.8499C10.8909 1.8499 11.7468 1.99254 12.5471 2.25558C12.9931 2.40216 13.4734 2.15946 13.62 1.71349C13.7666 1.26752 13.5239 0.787161 13.0779 0.640578C12.1084 0.321933 11.0735 0.149902 9.99999 0.149902C4.55999 0.149902 0.149994 4.5599 0.149994 9.9999C0.149994 15.4399 4.55999 19.8499 9.99999 19.8499C15.44 19.8499 19.85 15.4399 19.85 9.9999C19.85 9.53046 19.4694 9.1499 19 9.1499C18.5306 9.1499 18.15 9.53046 18.15 9.9999C18.15 14.501 14.5011 18.1499 9.99999 18.1499C5.49887 18.1499 1.84999 14.501 1.84999 9.9999ZM17.6023 5.59964C17.9336 5.26697 17.9324 4.72878 17.5997 4.39756C17.2671 4.06633 16.7289 4.0675 16.3977 4.40017L10.0496 10.7758L7.62092 8.17795C7.30033 7.83502 6.76245 7.81691 6.41952 8.1375C6.07659 8.45809 6.05848 8.99597 6.37907 9.3389L9.40937 12.5804C9.56693 12.7489 9.78623 12.8462 10.0169 12.8498C10.2476 12.8534 10.4699 12.7631 10.6326 12.5996L17.6023 5.59964Z" fill="#11294C" />
</svg>