<svg width="24" height="24" viewBox="0 0 24 24" fill="none" xmlns="http://www.w3.org/2000/svg">
<path d="M20.2491 4.49878H3.74915C3.33493 4.49878 2.99915 4.83457 2.99915 5.24878V18.7488C2.99915 19.163 3.33493 19.4988 3.74915 19.4988H20.2491C20.6634 19.4988 20.9991 19.163 20.9991 18.7488V5.24878C20.9991 4.83457 20.6634 4.49878 20.2491 4.49878Z" stroke="#11294C" stroke-width="1.99708" stroke-linecap="round" stroke-linejoin="round"/>
<path d="M2.99915 15.7521L7.71477 11.0365C7.78456 10.9656 7.86774 10.9094 7.95948 10.8709C8.05122 10.8325 8.14969 10.8127 8.24915 10.8127C8.3486 10.8127 8.44707 10.8325 8.53881 10.8709C8.63055 10.9094 8.71373 10.9656 8.78352 11.0365L12.9648 15.2177C13.0346 15.2886 13.1177 15.3449 13.2095 15.3833C13.3012 15.4217 13.3997 15.4415 13.4991 15.4415C13.5986 15.4415 13.6971 15.4217 13.7888 15.3833C13.8805 15.3449 13.9637 15.2886 14.0335 15.2177L15.9648 13.2865C16.0346 13.2156 16.1177 13.1594 16.2095 13.1209C16.3012 13.0825 16.3997 13.0627 16.4991 13.0627C16.5986 13.0627 16.6971 13.0825 16.7888 13.1209C16.8805 13.1594 16.9637 13.2156 17.0335 13.2865L20.9991 17.2521" stroke="#11294C" stroke-width="1.99708" stroke-linecap="round" stroke-linejoin="round"/>
<path d="M14.6239 10.5016C15.2452 10.5016 15.7489 9.99791 15.7489 9.37659C15.7489 8.75527 15.2452 8.25159 14.6239 8.25159C14.0026 8.25159 13.4989 8.75527 13.4989 9.37659C13.4989 9.99791 14.0026 10.5016 14.6239 10.5016Z" fill="#11294C"/>
</svg>
