<svg width="26" height="26" viewBox="0 0 26 26" fill="none" xmlns="http://www.w3.org/2000/svg">
<path d="M13 0C10.4288 0 7.91543 0.762437 5.77759 2.19089C3.63975 3.61935 1.97351 5.64968 0.989572 8.02511C0.0056327 10.4006 -0.251811 13.0144 0.249797 15.5362C0.751405 18.0579 1.98953 20.3743 3.80762 22.1924C5.6257 24.0105 7.94208 25.2486 10.4638 25.7502C12.9856 26.2518 15.5994 25.9944 17.9749 25.0104C20.3503 24.0265 22.3807 22.3603 23.8091 20.2224C25.2376 18.0846 26 15.5712 26 13C25.9934 9.55421 24.6216 6.25145 22.1851 3.81491C19.7486 1.37837 16.4458 0.00660747 13 0ZM12.75 6C13.0467 6 13.3367 6.08797 13.5834 6.25279C13.83 6.41762 14.0223 6.65189 14.1358 6.92597C14.2494 7.20006 14.2791 7.50166 14.2212 7.79264C14.1633 8.08361 14.0204 8.35088 13.8107 8.56066C13.6009 8.77044 13.3336 8.9133 13.0426 8.97118C12.7517 9.02906 12.4501 8.99935 12.176 8.88582C11.9019 8.77229 11.6676 8.58003 11.5028 8.33335C11.338 8.08668 11.25 7.79667 11.25 7.5C11.25 7.10217 11.408 6.72064 11.6893 6.43934C11.9706 6.15803 12.3522 6 12.75 6ZM14 20H13C12.7348 20 12.4804 19.8946 12.2929 19.7071C12.1054 19.5196 12 19.2652 12 19V13C11.7348 13 11.4804 12.8946 11.2929 12.7071C11.1054 12.5196 11 12.2652 11 12C11 11.7348 11.1054 11.4804 11.2929 11.2929C11.4804 11.1054 11.7348 11 12 11H13C13.2652 11 13.5196 11.1054 13.7071 11.2929C13.8946 11.4804 14 11.7348 14 12V18C14.2652 18 14.5196 18.1054 14.7071 18.2929C14.8946 18.4804 15 18.7348 15 19C15 19.2652 14.8946 19.5196 14.7071 19.7071C14.5196 19.8946 14.2652 20 14 20Z" fill="#F68B1F"/>
</svg>
