<svg width="25" height="25" viewBox="0 0 25 25" fill="none" xmlns="http://www.w3.org/2000/svg">
<path d="M12.9552 13.48C14.6121 13.48 15.9552 12.1368 15.9552 10.48C15.9552 8.82313 14.6121 7.47998 12.9552 7.47998C11.2983 7.47998 9.9552 8.82313 9.9552 10.48C9.9552 12.1368 11.2983 13.48 12.9552 13.48Z" stroke="#11294C" stroke-width="1.99708" stroke-linecap="round" stroke-linejoin="round"/>
<path d="M20.4564 10.4812C20.4564 17.2312 12.9564 22.4812 12.9564 22.4812C12.9564 22.4812 5.45642 17.2312 5.45642 10.4812C5.45642 8.49208 6.2466 6.58442 7.65312 5.1779C9.05964 3.77138 10.9673 2.9812 12.9564 2.9812C14.9455 2.9812 16.8532 3.77138 18.2597 5.1779C19.6662 6.58442 20.4564 8.49208 20.4564 10.4812V10.4812Z" stroke="#11294C" stroke-width="1.99708" stroke-linecap="round" stroke-linejoin="round"/>
</svg>
