<svg width="19" height="18" viewBox="0 0 19 18" fill="none" xmlns="http://www.w3.org/2000/svg">
    <path fill-rule="evenodd" clip-rule="evenodd" d="M3.85 4.9999C3.85 3.26021 5.2603 1.8499 7 1.8499C8.7397 1.8499 10.15 3.26021 10.15 4.9999C10.15 6.7396 8.7397 8.1499 7 8.1499C5.2603 8.1499 3.85 6.7396 3.85 4.9999ZM7 0.149902C4.32142 0.149902 2.15 2.32132 2.15 4.9999C2.15 7.67848 4.32142 9.8499 7 9.8499C9.67858 9.8499 11.85 7.67848 11.85 4.9999C11.85 2.32132 9.67858 0.149902 7 0.149902ZM1.85 14.9166C1.85 14.5136 2.17865 13.9978 3.21837 13.5387C4.2079 13.1017 5.58424 12.8499 7 12.8499C8.39571 12.8499 9.77089 13.143 10.7679 13.6046C11.2669 13.8356 11.6328 14.0911 11.863 14.3377C12.0846 14.5752 12.1476 14.7655 12.1499 14.9084C12.1419 14.9299 12.1051 14.998 11.9627 15.1087C11.7443 15.2785 11.3797 15.4615 10.865 15.6269C9.84456 15.9548 8.4363 16.1499 7 16.1499C5.3015 16.1499 3.90336 15.952 2.9613 15.6315C2.48764 15.4703 2.18106 15.2954 2.00769 15.1424C1.84893 15.0023 1.84985 14.9285 1.84999 14.9173L1.85 14.9166ZM12.1519 14.9009C12.1521 14.901 12.1519 14.9029 12.1506 14.9067C12.151 14.9028 12.1517 14.9009 12.1519 14.9009ZM7 11.1499C5.41576 11.1499 3.7921 11.4269 2.53163 11.9836C1.32135 12.518 0.150002 13.4606 0.150002 14.9166C0.150002 15.5455 0.467553 16.0506 0.882936 16.4171C1.28769 16.7743 1.82486 17.0405 2.4137 17.2409C3.59664 17.6434 5.1985 17.8499 7 17.8499C8.5637 17.8499 10.1554 17.6406 11.3851 17.2454C11.9953 17.0493 12.5683 16.7912 13.006 16.4509C13.4404 16.1133 13.85 15.6033 13.85 14.9166C13.85 14.227 13.5361 13.6388 13.1058 13.1777C12.6797 12.7212 12.1081 12.3517 11.4821 12.0619C10.2291 11.4818 8.60429 11.1499 7 11.1499ZM13.1539 8.91837C13.1989 8.45109 13.6143 8.10879 14.0815 8.15382C15.2957 8.27082 16.4222 8.58644 17.2734 9.07868C18.0977 9.55539 18.85 10.3199 18.85 11.3732C18.85 11.9191 18.6411 12.4169 18.2349 12.8125C17.8519 13.1854 17.3292 13.4348 16.7318 13.6042C16.2802 13.7322 15.8103 13.4699 15.6822 13.0182C15.5542 12.5666 15.8165 12.0967 16.2682 11.9686C16.7158 11.8417 16.943 11.6977 17.0488 11.5946C17.1314 11.5142 17.15 11.4535 17.15 11.3732C17.15 11.2165 17.0328 10.9033 16.4224 10.5503C15.8389 10.2129 14.9653 9.94686 13.9185 9.84598C13.4512 9.80095 13.1089 9.38565 13.1539 8.91837ZM15 0.149902C14.5306 0.149902 14.15 0.53046 14.15 0.999902C14.15 1.46934 14.5306 1.8499 15 1.8499C15.9113 1.8499 16.65 2.58863 16.65 3.4999C16.65 4.41117 15.9113 5.1499 15 5.1499C14.5306 5.1499 14.15 5.53046 14.15 5.9999C14.15 6.46934 14.5306 6.8499 15 6.8499C16.8502 6.8499 18.35 5.35006 18.35 3.4999C18.35 1.64975 16.8502 0.149902 15 0.149902Z" fill="#11294C" />
</svg>