<svg width="18" height="19" viewBox="0 0 18 20" fill="none" xmlns="http://www.w3.org/2000/svg">
    <path fill-rule="evenodd" clip-rule="evenodd" d="M5.35002 5.4999C5.35002 3.85156 6.8873 2.3499 9.00002 2.3499C11.1127 2.3499 12.65 3.85156 12.65 5.4999C12.65 7.14825 11.1127 8.6499 9.00002 8.6499C6.8873 8.6499 5.35002 7.14825 5.35002 5.4999ZM9.00002 0.649902C6.14219 0.649902 3.65002 2.72997 3.65002 5.4999C3.65002 8.26984 6.14219 10.3499 9.00002 10.3499C11.8579 10.3499 14.35 8.26984 14.35 5.4999C14.35 2.72997 11.8579 0.649902 9.00002 0.649902ZM2.35002 15.9999C2.35002 15.4298 2.83865 14.7627 4.17554 14.1959C5.44982 13.6557 7.20546 13.3499 9.00002 13.3499C10.7753 13.3499 12.5298 13.7072 13.8111 14.2766C14.4527 14.5618 14.9355 14.8824 15.246 15.2018C15.5529 15.5174 15.65 15.7848 15.65 15.9999C15.65 16.0493 15.6331 16.178 15.3876 16.382C15.1345 16.5923 14.7113 16.8152 14.0952 17.0148C12.8704 17.4116 11.0919 17.6499 9.00002 17.6499C6.90812 17.6499 5.12967 17.4116 3.90482 17.0148C3.28876 16.8152 2.86552 16.5923 2.61248 16.382C2.36694 16.178 2.35002 16.0493 2.35002 15.9999ZM9.00002 11.6499C7.04459 11.6499 5.05023 11.9787 3.51201 12.6308C2.0364 13.2563 0.650024 14.3392 0.650024 15.9999C0.650024 16.7152 1.03489 17.2814 1.52596 17.6895C2.00952 18.0913 2.65772 18.3978 3.38095 18.6321C4.83467 19.103 6.80621 19.3499 9.00002 19.3499C11.1938 19.3499 13.1654 19.103 14.6191 18.6321C15.3423 18.3978 15.9905 18.0913 16.4741 17.6895C16.9652 17.2814 17.35 16.7152 17.35 15.9999C17.35 15.215 16.9784 14.5449 16.4649 14.0168C15.9551 13.4924 15.2661 13.063 14.5015 12.7232C12.9703 12.0426 10.9747 11.6499 9.00002 11.6499Z" fill="#11294C" />
</svg>