<svg width="20" height="24" viewBox="0 0 25 24" fill="none" xmlns="http://www.w3.org/2000/svg">
    <path d="M22.8115 16.3636L22.8115 16.3636C22.7283 16.4497 22.7967 16.578 22.8912 16.578C23.5902 16.578 24.1498 17.1646 24.15 17.8751V17.8752V18.7807C24.15 19.4913 23.5902 20.0779 22.8911 20.0779C22.7969 20.0779 22.7287 20.2064 22.8114 20.2918L22.8115 20.2919C23.3 20.7974 23.3 21.6173 22.8117 22.1228L22.8116 22.1229L22.1925 22.7629C21.7014 23.2716 20.8995 23.2713 20.4085 22.7629M22.8115 16.3636L20.5163 22.6587M22.8115 16.3636C23.2998 15.8581 23.2999 15.0381 22.8113 14.533C22.8113 14.533 22.8113 14.533 22.8113 14.533L22.1925 13.8929L22.8115 16.3636ZM20.4085 22.7629L20.5163 22.6587M20.4085 22.7629C20.4085 22.763 20.4085 22.763 20.4085 22.763L20.5163 22.6587M20.4085 22.7629C20.3421 22.6944 20.2132 22.7316 20.2132 22.8527C20.2132 23.5633 19.6534 24.1498 18.9544 24.1498H18.0789C17.3797 24.1498 16.8199 23.5634 16.8199 22.8527C16.8199 22.7312 16.6913 22.694 16.6246 22.763C16.1335 23.271 15.3322 23.2707 14.8408 22.7631L14.8407 22.763L14.2219 22.1225M20.5163 22.6587C20.3484 22.4851 20.0632 22.608 20.0632 22.8527C20.0632 23.4853 19.5658 23.9998 18.9544 23.9998H18.0789C17.4673 23.9998 16.9699 23.4853 16.9699 22.8527C16.9699 22.6072 16.6847 22.4851 16.5168 22.6587C16.0847 23.1057 15.381 23.1055 14.9485 22.6587L14.3297 22.0182M14.2219 22.1225L14.3297 22.0182M14.2219 22.1225L14.2218 22.1224L14.3297 22.0182M14.2219 22.1225C13.7331 21.6174 13.7331 20.7974 14.2218 20.2919C14.305 20.2058 14.2366 20.0775 14.1422 20.0775C13.4874 20.0775 12.9548 19.5631 12.8898 18.9141H0.422033C0.0593328 18.9141 -0.203146 18.5761 -0.14074 18.2228L-0.140719 18.2227L0.542109 14.3755L0.542111 14.3755C0.983386 11.8906 3.07839 10.0807 5.5303 10.0807H13.4086C15.209 10.0807 16.8153 11.0588 17.7169 12.5612C17.8315 12.5256 17.953 12.5063 18.079 12.5063H18.9544C19.6534 12.5063 20.2133 13.0928 20.2133 13.8032C20.2133 13.9237 20.3412 13.9621 20.4089 13.8925L20.5164 13.9972M14.3297 22.0182C13.8972 21.5713 13.8972 20.8435 14.3297 20.3961C14.4976 20.2225 14.3795 19.9275 14.1422 19.9275C13.5305 19.9275 13.0331 19.4129 13.0331 18.7803L22.1924 13.8929C21.701 13.3843 20.8996 13.3845 20.4085 13.893L20.5164 13.9972M20.5164 13.9972C20.9485 13.5498 21.6521 13.5496 22.0846 13.9972L5.5303 10.2307H13.4086C15.1955 10.2307 16.7877 11.2249 17.6508 12.7455C17.7826 12.6883 17.9271 12.6563 18.079 12.6563H18.9544C19.5658 12.6563 20.0633 13.1708 20.0633 13.8032C20.0633 14.0481 20.3477 14.1704 20.5164 13.9972ZM15.813 21.9368L15.813 21.9368C16.6091 21.1137 17.9639 21.7058 17.9639 22.8522C17.9639 22.9257 18.0203 22.9767 18.0793 22.9767H18.9547C19.0134 22.9767 19.0699 22.9258 19.0699 22.8522C19.0699 21.7098 20.4205 21.1095 21.2208 21.9369C21.2649 21.9825 21.3354 21.9829 21.3803 21.9369C21.3804 21.9368 21.3804 21.9368 21.3805 21.9367L21.9991 21.2969C22.0464 21.2479 22.0464 21.1661 21.9991 21.1171C21.2159 20.3073 21.763 18.9047 22.8911 18.9047C22.9498 18.9047 23.0063 18.8538 23.0063 18.7802V17.8749C23.0063 17.8017 22.9497 17.7506 22.8911 17.7506C21.7611 17.7506 21.2174 16.3469 21.999 15.5375L21.9993 15.5372C22.0463 15.4888 22.0465 15.4071 21.9991 15.358L21.3803 14.718L15.813 21.9368ZM15.813 21.9368C15.7684 21.9829 15.6978 21.9829 15.6532 21.9368M15.813 21.9368H15.6532M12.8894 17.7414C12.9541 17.0922 13.4868 16.5774 14.1419 16.5774C14.2358 16.5774 14.3046 16.4491 14.2214 16.3628L14.3294 16.2587L14.2216 16.363C13.7328 15.8579 13.7329 15.0379 14.2216 14.5324L14.8404 13.8923C15.3315 13.3842 16.1328 13.3846 16.6242 13.8922M12.8894 17.7414L16.5165 13.9965M12.8894 17.7414L1.10698 17.7414L1.6671 14.5851C1.6671 14.5851 1.6671 14.5851 1.6671 14.5851C2.01045 12.6507 3.63784 11.2529 5.52995 11.2529H13.4082C14.8941 11.2529 16.2131 12.1167 16.8785 13.4245M12.8894 17.7414L17.0402 13.4126M16.6242 13.8922L16.5165 13.9965M16.6242 13.8922C16.6242 13.8922 16.6242 13.8922 16.6242 13.8921L16.5165 13.9965M16.6242 13.8922C16.6912 13.9612 16.8196 13.9236 16.8196 13.8026C16.8196 13.6683 16.8426 13.5421 16.8785 13.4245M16.5165 13.9965C16.6848 14.1702 16.9696 14.0474 16.9696 13.8026C16.9696 13.665 16.9972 13.5352 17.0402 13.4126M16.8785 13.4245C16.8876 13.4425 16.8966 13.4605 16.9055 13.4787L17.0402 13.4126M16.8785 13.4245C16.8848 13.4037 16.8915 13.3832 16.8986 13.363L17.0402 13.4126M15.6532 21.9368L15.0344 21.2967M15.6532 21.9368L15.0344 21.2967M15.0344 21.2967C14.987 21.2477 14.987 21.1659 15.0344 21.1169M15.0344 21.2967V21.1169M15.0344 21.1169C15.8163 20.3081 15.2718 18.9045 14.1423 18.9045M15.0344 21.1169L14.1423 18.9045M14.1423 18.9045C14.0834 18.9045 14.0269 18.8536 14.0269 18.78M14.1423 18.9045L14.0269 18.78M14.0269 18.78V17.8745M14.0269 18.78V17.8745M14.0269 17.8745C14.0269 17.8014 14.0834 17.7502 14.1423 17.7502M14.0269 17.8745L14.1423 17.7502M14.1423 17.7502C15.2708 17.7502 15.817 16.3473 15.0344 15.5379M14.1423 17.7502L15.0344 15.5379M15.0344 15.5379C14.987 15.4889 14.987 15.407 15.0344 15.358M15.0344 15.5379L15.0344 15.358M15.0344 15.358L15.6532 14.7179M15.0344 15.358L15.6532 14.7179M15.6532 14.7179C15.6978 14.6718 15.7684 14.6718 15.813 14.7179M15.6532 14.7179H15.813M15.813 14.7179C16.6109 15.5432 17.9639 14.9476 17.9639 13.8025M15.813 14.7179L17.9639 13.8025M17.9639 13.8025C17.9639 13.7294 18.0203 13.6782 18.0793 13.6782M17.9639 13.8025L18.0793 13.6782M18.0793 13.6782H18.9547M18.0793 13.6782H18.9547M18.9547 13.6782C19.0133 13.6782 19.0699 13.7292 19.0699 13.8027M18.9547 13.6782L19.0699 13.8027M19.0699 13.8027C19.0699 14.9467 20.4216 15.5444 21.2208 14.7179M19.0699 13.8027L21.2208 14.7179M21.2208 14.7179L21.113 14.6137L21.2208 14.7179ZM0.00668697 18.2489H0.00668737H0.00668697Z" fill="#11294C" stroke="#11294C" stroke-width="0.3" />
    <path d="M6.19723 4.41195V4.41193C6.19723 2.53832 7.66994 1.02249 9.46915 1.02249C11.2684 1.02249 12.7411 2.53851 12.7411 4.4123C12.7411 6.28591 11.2684 7.80174 9.46915 7.80174C7.6697 7.80174 6.19704 6.28572 6.19723 4.41195ZM5.05361 4.41246C5.05362 6.92314 7.02949 8.97449 9.46915 8.97449C11.9086 8.97449 13.8847 6.92292 13.8847 4.41204C13.8847 1.90136 11.9088 -0.15 9.46915 -0.15C7.02949 -0.15 5.05342 1.90156 5.05361 4.41245V4.41246Z" fill="#11294C" stroke="#11294C" stroke-width="0.3" />
</svg>