<svg width="26" height="24" viewBox="0 0 26 24" fill="none" xmlns="http://www.w3.org/2000/svg">
<path d="M13 15C15.0711 15 16.75 13.3211 16.75 11.25C16.75 9.17893 15.0711 7.5 13 7.5C10.9289 7.5 9.25 9.17893 9.25 11.25C9.25 13.3211 10.9289 15 13 15Z" stroke="#6BB043" stroke-width="2" stroke-linecap="round" stroke-linejoin="round"/>
<path d="M6.9812 18.6938C7.54549 17.5824 8.40654 16.6488 9.4689 15.9968C10.5313 15.3447 11.7534 14.9995 13 14.9995C14.2465 14.9995 15.4686 15.3447 16.531 15.9968C17.5934 16.6488 18.4544 17.5824 19.0187 18.6938" stroke="#6BB043" stroke-width="2" stroke-linecap="round" stroke-linejoin="round"/>
<path d="M19.75 12L22 14.25L24.25 12" stroke="#6BB043" stroke-width="2" stroke-linecap="round" stroke-linejoin="round"/>
<path d="M1.75 12L4 9.75L6.25 12" stroke="#6BB043" stroke-width="2" stroke-linecap="round" stroke-linejoin="round"/>
<path d="M22 14.2501V12.0001C22.0021 10.0556 21.3744 8.16267 20.2108 6.60473C19.0472 5.04679 17.4104 3.90759 15.5453 3.35766C13.6802 2.80773 11.6871 2.87665 9.86442 3.5541C8.04175 4.23155 6.4875 5.48109 5.43433 7.11569" stroke="#6BB043" stroke-width="2" stroke-linecap="round" stroke-linejoin="round"/>
<path d="M4.00001 9.75V12C3.99788 13.9445 4.62558 15.8374 5.78915 17.3953C6.95272 18.9533 8.58957 20.0925 10.4547 20.6424C12.3198 21.1923 14.3129 21.1234 16.1355 20.446C17.9582 19.7685 19.5125 18.519 20.5656 16.8844" stroke="#6BB043" stroke-width="2" stroke-linecap="round" stroke-linejoin="round"/>
</svg>
