<svg width="20" height="20" viewBox="0 0 20 20" fill="none" xmlns="http://www.w3.org/2000/svg">
    <path d="M6.6272 10.3201C7.39897 11.9139 8.68771 13.1993 10.2834 13.967C10.4012 14.0228 10.5314 14.0469 10.6612 14.037C10.7911 14.0272 10.9161 13.9836 11.0241 13.9108L13.3678 12.3451C13.4714 12.2749 13.591 12.2321 13.7156 12.2206C13.8402 12.2091 13.9657 12.2294 14.0803 12.2795L18.4678 14.1639C18.6178 14.2263 18.7431 14.3363 18.8244 14.4769C18.9057 14.6175 18.9385 14.7809 18.9178 14.942C18.7788 16.0274 18.249 17.0249 17.4276 17.7479C16.6062 18.4709 15.5496 18.8699 14.4553 18.8701C11.0738 18.8701 7.8308 17.5268 5.43971 15.1358C3.04862 12.7447 1.70532 9.50166 1.70532 6.12015C1.70557 5.0259 2.10452 3.96922 2.82753 3.14786C3.55054 2.32649 4.54807 1.79671 5.63345 1.65765C5.79455 1.63695 5.95798 1.66979 6.09858 1.7511C6.23919 1.83242 6.34916 1.9577 6.41157 2.10765L8.29595 6.50452C8.34495 6.61735 8.36545 6.7405 8.35564 6.86311C8.34583 6.98573 8.30601 7.10405 8.2397 7.20765L6.67407 9.5889C6.60437 9.6966 6.56346 9.82038 6.55525 9.94841C6.54705 10.0764 6.57182 10.2044 6.6272 10.3201V10.3201Z" stroke="#11294C" stroke-width="1.99708" stroke-linecap="round" stroke-linejoin="round" />
</svg>