<svg width="24" height="24" viewBox="0 0 24 24" fill="none" xmlns="http://www.w3.org/2000/svg">
<path d="M21 12C21 16.9706 16.9706 21 12 21C7.02944 21 3 16.9706 3 12C3 7.02944 7.02944 3 12 3C16.9706 3 21 7.02944 21 12Z" stroke="#6BB043" stroke-width="2" stroke-linecap="round" stroke-linejoin="round"/>
<path d="M9.75 10C9.75 10 10 7.75 12 7.75C14 7.75 14.25 9 14.25 10C14.25 10.7513 13.8266 11.5027 12.9798 11.8299C12.4647 12.0289 12 12.4477 12 13V13.25" stroke="#6BB043" stroke-width="2" stroke-linecap="round" stroke-linejoin="round"/>
<path d="M13 17C13 17.5522 12.5522 18 12 18C11.4478 18 11 17.5522 11 17C11 16.4478 11.4478 16 12 16C12.5522 16 13 16.4478 13 17Z" fill="#6BB043"/>
</svg>
