<svg width="20" height="20" viewBox="0 0 20 20" fill="none" xmlns="http://www.w3.org/2000/svg">
<path fill-rule="evenodd" clip-rule="evenodd" d="M1.85002 8.00002C1.85002 4.60347 4.60347 1.85002 8.00002 1.85002C11.3966 1.85002 14.15 4.60347 14.15 8.00002C14.15 11.3966 11.3966 14.15 8.00002 14.15C4.60347 14.15 1.85002 11.3966 1.85002 8.00002ZM8.00002 0.150024C3.66459 0.150024 0.150024 3.66459 0.150024 8.00002C0.150024 12.3355 3.66459 15.85 8.00002 15.85C9.86154 15.85 11.5717 15.2021 12.9173 14.1194L18.399 19.6011C18.7309 19.933 19.2691 19.933 19.6011 19.6011C19.933 19.2691 19.933 18.7309 19.6011 18.399L14.1194 12.9173C15.2021 11.5717 15.85 9.86154 15.85 8.00002C15.85 3.66459 12.3355 0.150024 8.00002 0.150024Z" fill="black"/>
</svg>
