<svg width="18" height="19" viewBox="0 0 20 21" fill="none" xmlns="http://www.w3.org/2000/svg">
    <path fill-rule="evenodd" clip-rule="evenodd" d="M4.60537 5.51369C6.19355 6.05866 7.85686 4.96481 8.15234 3.45566C8.334 2.67131 8.54722 2.32831 8.75876 2.15276C8.96297 1.98331 9.3113 1.8499 10.0681 1.8499C10.6537 1.8499 10.9861 1.9972 11.2032 2.20121C11.4367 2.42064 11.6532 2.81461 11.7831 3.52733L11.7831 3.52733L11.7839 3.53179C11.9393 4.35906 12.5089 4.9829 13.1709 5.32801C13.8348 5.6741 14.6677 5.7831 15.4529 5.50667C15.4638 5.50282 15.4746 5.49876 15.4854 5.49447C16.2385 5.19422 16.6479 5.20015 16.8979 5.28459C17.1438 5.36764 17.4259 5.59071 17.7749 6.18195C18.1315 6.78626 18.1785 7.10871 18.1376 7.32677C18.0947 7.55505 17.9137 7.89261 17.2772 8.42079L17.2655 8.43063C15.9883 9.52976 15.9883 11.47 17.2655 12.5692L17.2772 12.579C17.9137 13.1072 18.0947 13.4448 18.1376 13.673C18.1785 13.8911 18.1315 14.2135 17.7749 14.8179C17.4279 15.4057 17.1416 15.6391 16.8818 15.7327C16.6166 15.8283 16.1994 15.8427 15.4486 15.5867C13.9258 15.0534 12.076 15.9607 11.7817 17.6707C11.6509 18.4304 11.4405 18.7311 11.2525 18.8766C11.0499 19.0336 10.6968 19.1499 9.96995 19.1499C9.27034 19.1499 8.91032 19.0197 8.69877 18.85C8.49377 18.6855 8.28614 18.3693 8.15744 17.6661C7.86052 15.959 6.01275 15.0539 4.49126 15.5867C3.74049 15.8427 3.3233 15.8283 3.05808 15.7327C2.79834 15.6391 2.51204 15.4057 2.16504 14.8179C2.16029 14.8098 2.15541 14.8018 2.15039 14.7939C1.84533 14.314 1.81342 13.9814 1.878 13.72C1.95058 13.4261 2.18745 13.0488 2.7567 12.5824L2.77249 12.5692C4.07171 11.4511 3.92902 9.51326 2.67803 8.52695C2.11043 7.97065 1.93322 7.61698 1.89204 7.36068C1.85285 7.11676 1.90914 6.78503 2.25594 6.19423C2.574 5.69771 2.86758 5.48707 3.15516 5.39848C3.46392 5.30337 3.90804 5.30471 4.60537 5.51369ZM10.0681 0.149902C9.15671 0.149902 8.32754 0.301497 7.67315 0.844543C7.02738 1.38042 6.70223 2.1743 6.49211 3.08974C6.48957 3.10079 6.48726 3.11188 6.48517 3.12302C6.37911 3.68772 5.70759 4.09955 5.14969 3.90314C5.13774 3.89893 5.1257 3.89499 5.11357 3.89132C4.25006 3.63007 3.42296 3.53716 2.65468 3.77382C1.86511 4.01705 1.2779 4.56381 0.813813 5.29393C0.808797 5.30182 0.803911 5.3098 0.799158 5.31785C0.3674 6.04936 0.08131 6.80723 0.213566 7.63037C0.343316 8.43791 0.84692 9.12055 1.52868 9.78059C1.55389 9.805 1.58058 9.82782 1.60861 9.84892C2.07858 10.2028 2.11427 10.886 1.66994 11.2751C0.968121 11.852 0.423989 12.5172 0.227602 13.3123C0.0234294 14.1389 0.233487 14.9422 0.708055 15.6938C1.1449 16.4307 1.69105 17.0472 2.48191 17.3321C3.27117 17.6164 4.12879 17.507 5.04414 17.1942L5.04416 17.1943L5.05157 17.1917C5.68665 16.9681 6.38504 17.3907 6.48288 17.9591L6.48284 17.9591L6.48434 17.9673C6.65007 18.8765 6.98177 19.652 7.63502 20.1761C8.28206 20.6951 9.09955 20.8499 9.96995 20.8499C10.8131 20.8499 11.6375 20.7287 12.2935 20.2207C12.9641 19.7013 13.2934 18.9094 13.457 17.9591C13.5549 17.3907 14.2532 16.9681 14.8883 17.1917L14.8883 17.1917L14.8958 17.1942C15.8111 17.507 16.6687 17.6164 17.458 17.3321C18.2531 17.0457 18.8008 16.4241 19.2389 15.682C19.6672 14.9563 19.9636 14.1862 19.8083 13.3593C19.6554 12.5451 19.1035 11.8867 18.3696 11.2764C17.887 10.8564 17.887 10.1434 18.3696 9.72336C19.1035 9.11313 19.6554 8.45474 19.8083 7.64054C19.9636 6.81359 19.6672 6.04354 19.2389 5.31785C18.8028 4.57909 18.2508 3.94717 17.4419 3.67396C16.6426 3.40404 15.7828 3.54855 14.8749 3.90776C14.5837 4.00566 14.2451 3.97089 13.9567 3.82055C13.6628 3.6673 13.4965 3.43693 13.455 3.21969C13.2904 2.31855 12.9673 1.52609 12.3673 0.962343C11.7504 0.382606 10.9543 0.149902 10.0681 0.149902ZM7.85002 10.4999C7.85002 9.31249 8.8126 8.3499 10 8.3499C11.1874 8.3499 12.15 9.31249 12.15 10.4999C12.15 11.6873 11.1874 12.6499 10 12.6499C8.8126 12.6499 7.85002 11.6873 7.85002 10.4999ZM10 6.6499C7.87372 6.6499 6.15002 8.37361 6.15002 10.4999C6.15002 12.6262 7.87372 14.3499 10 14.3499C12.1263 14.3499 13.85 12.6262 13.85 10.4999C13.85 8.37361 12.1263 6.6499 10 6.6499Z" fill="#11294C" />
</svg>