<svg width="10" height="12" viewBox="0 0 10 12" fill="none" xmlns="http://www.w3.org/2000/svg">
<path d="M5 0.75C3.90636 0.751241 2.85787 1.18624 2.08455 1.95955C1.31124 2.73287 0.876241 3.78136 0.875 4.875C0.875 8.40469 4.625 11.0719 4.78438 11.1844C4.84825 11.2269 4.92327 11.2496 5 11.2496C5.07673 11.2496 5.15175 11.2269 5.21563 11.1844C5.375 11.0719 9.125 8.40469 9.125 4.875C9.12376 3.78136 8.68876 2.73287 7.91545 1.95955C7.14213 1.18624 6.09364 0.751241 5 0.75ZM5 3.375C5.29667 3.375 5.58668 3.46297 5.83335 3.6278C6.08003 3.79262 6.27229 4.02689 6.38582 4.30097C6.49935 4.57506 6.52906 4.87666 6.47118 5.16763C6.4133 5.45861 6.27044 5.72588 6.06066 5.93566C5.85088 6.14544 5.58361 6.2883 5.29264 6.34618C5.00166 6.40406 4.70006 6.37435 4.42597 6.26082C4.15189 6.14729 3.91762 5.95503 3.7528 5.70835C3.58797 5.46168 3.5 5.17167 3.5 4.875C3.5 4.47717 3.65804 4.09564 3.93934 3.81434C4.22064 3.53304 4.60218 3.375 5 3.375Z" fill="#11294C"/>
</svg>
