<svg width="110" height="110" viewBox="0 0 110 110" fill="none" xmlns="http://www.w3.org/2000/svg">
<g filter="url(#filter0_d_4816_13196)">
<path d="M47.5937 78.6955C46.6223 78.6966 45.6611 78.4975 44.7698 78.1105C43.8785 77.7235 43.0761 77.1569 42.4124 76.446L26.3382 59.227C25.7015 58.5458 25.2049 57.7455 24.8768 56.8719C24.5486 55.9982 24.3953 55.0684 24.4256 54.1353C24.4559 53.2023 24.6693 52.2844 25.0534 51.434C25.4376 50.5836 25.985 49.8175 26.6645 49.1792C27.3441 48.5409 28.1423 48.0431 29.0138 47.7141C29.8852 47.3851 30.8128 47.2314 31.7434 47.2618C32.6741 47.2922 33.5897 47.5061 34.4379 47.8912C35.2862 48.2763 36.0505 48.8252 36.6872 49.5064L47.1313 60.6858L71.8545 29.329C73.0371 27.8966 74.7319 26.9851 76.5763 26.7895C78.4207 26.5939 80.2682 27.1297 81.7236 28.2823C83.1789 29.4349 84.1265 31.1128 84.3636 32.9569C84.6007 34.801 84.1085 36.6649 82.9922 38.1498L53.1693 76.0233C52.5389 76.8333 51.7406 77.4966 50.8296 77.9674C49.9187 78.4381 48.9167 78.7051 47.8928 78.75L47.5937 78.6955Z" fill="#6BB043"/>
<g filter="url(#filter1_d_4816_13196)">
<path d="M100.846 53.0451C100.829 64.9492 96.2272 76.3975 88.0557 85.0501L84.1569 88.7402C75.168 96.3553 63.6429 100.305 51.8751 99.8037C40.1074 99.3022 28.9597 94.3864 20.6505 86.0343C12.3413 77.6822 7.47989 66.5063 7.03367 54.7306C6.58746 42.955 10.5892 31.4429 18.2424 22.4854L22.015 18.6128C28.6991 12.3693 37.0632 8.219 46.0763 6.67363C55.0894 5.12825 64.3574 6.2553 72.738 9.91585C81.1187 13.5764 88.2455 19.6104 93.24 27.2742C98.2346 34.9379 100.878 43.8963 100.846 53.0451Z" fill="#FCFCFC"/>
<path d="M97.7177 53.034L97.7177 53.0408C97.7023 64.1116 93.4327 74.7686 85.8405 82.8395L82.0702 86.4081C73.6907 93.4791 62.962 97.145 52.0083 96.6783C41.0264 96.2104 30.6229 91.6228 22.8682 83.828C15.1134 76.0332 10.5761 65.6027 10.1596 54.6122C9.74444 43.6551 13.4554 32.9427 20.5556 24.5938L24.2033 20.8494C30.4325 15.0501 38.2177 11.1949 46.6049 9.75684C55.016 8.31469 63.665 9.36644 71.4859 12.7825C79.3069 16.1986 85.958 21.8298 90.6192 28.9821C95.2805 36.1345 97.7481 44.4953 97.7177 53.034Z" stroke="#6BB043" stroke-opacity="0.3" stroke-width="6.25641"/>
<path d="M48.5817 73.0181C47.8221 73.0189 47.0704 72.8632 46.3733 72.5606C45.6763 72.2579 45.0487 71.8148 44.5297 71.2588L31.9588 57.7927C31.4609 57.26 31.0726 56.6341 30.8159 55.9509C30.5593 55.2677 30.4394 54.5404 30.4631 53.8108C30.4868 53.0811 30.6536 52.3633 30.9541 51.6982C31.2545 51.0332 31.6826 50.434 32.2141 49.9348C32.7455 49.4357 33.3698 49.0463 34.0513 48.7891C34.7328 48.5318 35.4582 48.4116 36.186 48.4353C36.9138 48.4591 37.6299 48.6263 38.2933 48.9275C38.9566 49.2287 39.5543 49.658 40.0522 50.1907L48.2201 58.9336L67.5549 34.4109C68.4798 33.2908 69.8052 32.5779 71.2476 32.4249C72.69 32.272 74.1349 32.691 75.273 33.5924C76.4112 34.4938 77.1523 35.806 77.3377 37.2481C77.5231 38.6903 77.1382 40.148 76.2652 41.3093L52.9421 70.9283C52.4491 71.5618 51.8248 72.0805 51.1124 72.4486C50.4 72.8168 49.6164 73.0256 48.8157 73.0607L48.5817 73.0181Z" fill="#6BB043"/>
</g>
</g>
<defs>
<filter id="filter0_d_4816_13196" x="0" y="0" width="109.846" height="109.846" filterUnits="userSpaceOnUse" color-interpolation-filters="sRGB">
<feFlood flood-opacity="0" result="BackgroundImageFix"/>
<feColorMatrix in="SourceAlpha" type="matrix" values="0 0 0 0 0 0 0 0 0 0 0 0 0 0 0 0 0 0 127 0" result="hardAlpha"/>
<feOffset dx="1" dy="2"/>
<feGaussianBlur stdDeviation="4"/>
<feColorMatrix type="matrix" values="0 0 0 0 0.109804 0 0 0 0 0.109804 0 0 0 0 0.117647 0 0 0 0.04 0"/>
<feBlend mode="normal" in2="BackgroundImageFix" result="effect1_dropShadow_4816_13196"/>
<feBlend mode="normal" in="SourceGraphic" in2="effect1_dropShadow_4816_13196" result="shape"/>
</filter>
<filter id="filter1_d_4816_13196" x="1.52564" y="1.30769" width="106.359" height="106.359" filterUnits="userSpaceOnUse" color-interpolation-filters="sRGB">
<feFlood flood-opacity="0" result="BackgroundImageFix"/>
<feColorMatrix in="SourceAlpha" type="matrix" values="0 0 0 0 0 0 0 0 0 0 0 0 0 0 0 0 0 0 127 0" result="hardAlpha"/>
<feOffset dx="0.782051" dy="1.5641"/>
<feGaussianBlur stdDeviation="3.12821"/>
<feColorMatrix type="matrix" values="0 0 0 0 0.109804 0 0 0 0 0.109804 0 0 0 0 0.117647 0 0 0 0.04 0"/>
<feBlend mode="normal" in2="BackgroundImageFix" result="effect1_dropShadow_4816_13196"/>
<feBlend mode="normal" in="SourceGraphic" in2="effect1_dropShadow_4816_13196" result="shape"/>
</filter>
</defs>
</svg>
