<svg width="515" height="104" viewBox="0 0 515 104" fill="none" xmlns="http://www.w3.org/2000/svg">
<g opacity="0.4">
<path d="M4.5 8.26449C2.01471 8.26449 -2.80384e-07 6.41442 -1.80627e-07 4.13224C-8.08693e-08 1.85005 2.01471 -2.24233e-05 4.5 -2.23147e-05C6.98529 -2.2206e-05 9 1.85005 9 4.13224C9 6.41442 6.98529 8.26449 4.5 8.26449Z" fill="#F68B1F"/>
<path d="M28.5 8.2645C26.0147 8.2645 24 6.41442 24 4.13224C24 1.85005 26.0147 -2.13742e-05 28.5 -2.12656e-05C30.9853 -2.1157e-05 33 1.85005 33 4.13224C33 6.41442 30.9853 8.2645 28.5 8.2645Z" fill="#F68B1F"/>
<path d="M52.5 8.2645C50.0147 8.2645 48 6.41442 48 4.13224C48 1.85005 50.0147 -2.03252e-05 52.5 -2.02165e-05C54.9853 -2.01079e-05 57 1.85005 57 4.13224C57 6.41442 54.9853 8.2645 52.5 8.2645Z" fill="#F68B1F"/>
<path d="M76.5 8.2645C74.0147 8.2645 72 6.41442 72 4.13224C72 1.85006 74.0147 -1.92761e-05 76.5 -1.91674e-05C78.9853 -1.90588e-05 81 1.85006 81 4.13224C81 6.41442 78.9853 8.2645 76.5 8.2645Z" fill="#F68B1F"/>
<path d="M100.5 8.2645C98.0147 8.2645 96 6.41442 96 4.13224C96 1.85006 98.0147 -1.8227e-05 100.5 -1.81184e-05C102.985 -1.80097e-05 105 1.85006 105 4.13224C105 6.41442 102.985 8.2645 100.5 8.2645Z" fill="#F68B1F"/>
<path d="M124.5 8.2645C122.015 8.2645 120 6.41442 120 4.13224C120 1.85006 122.015 -1.71779e-05 124.5 -1.70693e-05C126.985 -1.69607e-05 129 1.85006 129 4.13224C129 6.41442 126.985 8.2645 124.5 8.2645Z" fill="#F68B1F"/>
<path d="M148.5 8.2645C146.015 8.2645 144 6.41443 144 4.13224C144 1.85006 146.015 -1.61289e-05 148.5 -1.60202e-05C150.985 -1.59116e-05 153 1.85006 153 4.13224C153 6.41443 150.985 8.2645 148.5 8.2645Z" fill="#F68B1F"/>
<path d="M172.5 8.2645C170.015 8.2645 168 6.41443 168 4.13224C168 1.85006 170.015 -1.50798e-05 172.5 -1.49712e-05C174.985 -1.48625e-05 177 1.85006 177 4.13224C177 6.41443 174.985 8.2645 172.5 8.2645Z" fill="#F68B1F"/>
<path d="M196.5 8.2645C194.015 8.2645 192 6.41443 192 4.13224C192 1.85006 194.015 -1.40307e-05 196.5 -1.39221e-05C198.985 -1.38134e-05 201 1.85006 201 4.13224C201 6.41443 198.985 8.2645 196.5 8.2645Z" fill="#F68B1F"/>
<path d="M220.5 8.2645C218.015 8.2645 216 6.41443 216 4.13225C216 1.85006 218.015 -1.29816e-05 220.5 -1.2873e-05C222.985 -1.27644e-05 225 1.85006 225 4.13225C225 6.41443 222.985 8.2645 220.5 8.2645Z" fill="#F68B1F"/>
<path d="M244.5 8.26451C242.015 8.2645 240 6.41443 240 4.13225C240 1.85006 242.015 -1.19326e-05 244.5 -1.18239e-05C246.985 -1.17153e-05 249 1.85006 249 4.13225C249 6.41443 246.985 8.26451 244.5 8.26451Z" fill="#F68B1F"/>
<path d="M18.5 30.3032C16.0147 30.3032 14 28.4531 14 26.1709C14 23.8888 16.0147 22.0387 18.5 22.0387C20.9853 22.0387 23 23.8888 23 26.1709C23 28.4531 20.9853 30.3032 18.5 30.3032Z" fill="#F68B1F"/>
<path d="M42.5 30.3032C40.0147 30.3032 38 28.4531 38 26.171C38 23.8888 40.0147 22.0387 42.5 22.0387C44.9853 22.0387 47 23.8888 47 26.171C47 28.4531 44.9853 30.3032 42.5 30.3032Z" fill="#F68B1F"/>
<path d="M66.5 30.3032C64.0147 30.3032 62 28.4531 62 26.171C62 23.8888 64.0147 22.0387 66.5 22.0387C68.9853 22.0387 71 23.8888 71 26.171C71 28.4531 68.9853 30.3032 66.5 30.3032Z" fill="#F68B1F"/>
<path d="M90.5 30.3032C88.0147 30.3032 86 28.4531 86 26.171C86 23.8888 88.0147 22.0387 90.5 22.0387C92.9853 22.0387 95 23.8888 95 26.171C95 28.4531 92.9853 30.3032 90.5 30.3032Z" fill="#F68B1F"/>
<path d="M114.5 30.3032C112.015 30.3032 110 28.4531 110 26.171C110 23.8888 112.015 22.0387 114.5 22.0387C116.985 22.0387 119 23.8888 119 26.171C119 28.4531 116.985 30.3032 114.5 30.3032Z" fill="#F68B1F"/>
<path d="M138.5 30.3032C136.015 30.3032 134 28.4531 134 26.171C134 23.8888 136.015 22.0387 138.5 22.0387C140.985 22.0387 143 23.8888 143 26.171C143 28.4531 140.985 30.3032 138.5 30.3032Z" fill="#F68B1F"/>
<path d="M162.5 30.3032C160.015 30.3032 158 28.4531 158 26.171C158 23.8888 160.015 22.0387 162.5 22.0387C164.985 22.0387 167 23.8888 167 26.171C167 28.4531 164.985 30.3032 162.5 30.3032Z" fill="#F68B1F"/>
<path d="M186.5 30.3032C184.015 30.3032 182 28.4531 182 26.171C182 23.8888 184.015 22.0387 186.5 22.0387C188.985 22.0387 191 23.8888 191 26.171C191 28.4531 188.985 30.3032 186.5 30.3032Z" fill="#F68B1F"/>
<path d="M210.5 30.3032C208.015 30.3032 206 28.4531 206 26.171C206 23.8888 208.015 22.0387 210.5 22.0387C212.985 22.0387 215 23.8888 215 26.171C215 28.4531 212.985 30.3032 210.5 30.3032Z" fill="#F68B1F"/>
<path d="M234.5 30.3032C232.015 30.3032 230 28.4531 230 26.171C230 23.8888 232.015 22.0387 234.5 22.0387C236.985 22.0387 239 23.8888 239 26.171C239 28.4531 236.985 30.3032 234.5 30.3032Z" fill="#F68B1F"/>
<path d="M258.5 30.3032C256.015 30.3032 254 28.4531 254 26.171C254 23.8888 256.015 22.0387 258.5 22.0387C260.985 22.0387 263 23.8888 263 26.171C263 28.4531 260.985 30.3032 258.5 30.3032Z" fill="#F68B1F"/>
<path d="M32.5 52.3419C30.0147 52.3419 28 50.4918 28 48.2097C28 45.9275 30.0147 44.0774 32.5 44.0774C34.9853 44.0774 37 45.9275 37 48.2097C37 50.4918 34.9853 52.3419 32.5 52.3419Z" fill="#F68B1F"/>
<path d="M56.5 52.3419C54.0147 52.3419 52 50.4918 52 48.2097C52 45.9275 54.0147 44.0774 56.5 44.0774C58.9853 44.0774 61 45.9275 61 48.2097C61 50.4918 58.9853 52.3419 56.5 52.3419Z" fill="#F68B1F"/>
<path d="M80.5 52.3419C78.0147 52.3419 76 50.4918 76 48.2097C76 45.9275 78.0147 44.0774 80.5 44.0774C82.9853 44.0774 85 45.9275 85 48.2097C85 50.4918 82.9853 52.3419 80.5 52.3419Z" fill="#F68B1F"/>
<path d="M104.5 52.3419C102.015 52.3419 100 50.4918 100 48.2097C100 45.9275 102.015 44.0774 104.5 44.0774C106.985 44.0774 109 45.9275 109 48.2097C109 50.4918 106.985 52.3419 104.5 52.3419Z" fill="#F68B1F"/>
<path d="M128.5 52.3419C126.015 52.3419 124 50.4918 124 48.2097C124 45.9275 126.015 44.0774 128.5 44.0774C130.985 44.0774 133 45.9275 133 48.2097C133 50.4918 130.985 52.3419 128.5 52.3419Z" fill="#F68B1F"/>
<path d="M152.5 52.3419C150.015 52.3419 148 50.4918 148 48.2097C148 45.9275 150.015 44.0774 152.5 44.0774C154.985 44.0774 157 45.9275 157 48.2097C157 50.4918 154.985 52.3419 152.5 52.3419Z" fill="#F68B1F"/>
<path d="M176.5 52.3419C174.015 52.3419 172 50.4918 172 48.2097C172 45.9275 174.015 44.0774 176.5 44.0774C178.985 44.0774 181 45.9275 181 48.2097C181 50.4918 178.985 52.3419 176.5 52.3419Z" fill="#F68B1F"/>
<path d="M200.5 52.3419C198.015 52.3419 196 50.4918 196 48.2097C196 45.9275 198.015 44.0774 200.5 44.0774C202.985 44.0774 205 45.9275 205 48.2097C205 50.4918 202.985 52.3419 200.5 52.3419Z" fill="#F68B1F"/>
<path d="M224.5 52.3419C222.015 52.3419 220 50.4919 220 48.2097C220 45.9275 222.015 44.0774 224.5 44.0774C226.985 44.0774 229 45.9275 229 48.2097C229 50.4919 226.985 52.3419 224.5 52.3419Z" fill="#F68B1F"/>
<path d="M248.5 52.3419C246.015 52.3419 244 50.4919 244 48.2097C244 45.9275 246.015 44.0774 248.5 44.0774C250.985 44.0774 253 45.9275 253 48.2097C253 50.4919 250.985 52.3419 248.5 52.3419Z" fill="#F68B1F"/>
<path d="M272.5 52.3419C270.015 52.3419 268 50.4919 268 48.2097C268 45.9275 270.015 44.0774 272.5 44.0774C274.985 44.0774 277 45.9275 277 48.2097C277 50.4919 274.985 52.3419 272.5 52.3419Z" fill="#F68B1F"/>
<path d="M46.5 74.3806C44.0147 74.3806 42 72.5306 42 70.2484C42 67.9662 44.0147 66.1161 46.5 66.1161C48.9853 66.1161 51 67.9662 51 70.2484C51 72.5306 48.9853 74.3806 46.5 74.3806Z" fill="#F68B1F"/>
<path d="M70.5 74.3806C68.0147 74.3806 66 72.5306 66 70.2484C66 67.9662 68.0147 66.1161 70.5 66.1161C72.9853 66.1161 75 67.9662 75 70.2484C75 72.5306 72.9853 74.3806 70.5 74.3806Z" fill="#F68B1F"/>
<path d="M94.5 74.3806C92.0147 74.3806 90 72.5306 90 70.2484C90 67.9662 92.0147 66.1161 94.5 66.1161C96.9853 66.1161 99 67.9662 99 70.2484C99 72.5306 96.9853 74.3806 94.5 74.3806Z" fill="#F68B1F"/>
<path d="M118.5 74.3806C116.015 74.3806 114 72.5306 114 70.2484C114 67.9662 116.015 66.1161 118.5 66.1161C120.985 66.1161 123 67.9662 123 70.2484C123 72.5306 120.985 74.3806 118.5 74.3806Z" fill="#F68B1F"/>
<path d="M142.5 74.3806C140.015 74.3806 138 72.5306 138 70.2484C138 67.9662 140.015 66.1161 142.5 66.1161C144.985 66.1161 147 67.9662 147 70.2484C147 72.5306 144.985 74.3806 142.5 74.3806Z" fill="#F68B1F"/>
<path d="M166.5 74.3806C164.015 74.3806 162 72.5306 162 70.2484C162 67.9662 164.015 66.1161 166.5 66.1161C168.985 66.1161 171 67.9662 171 70.2484C171 72.5306 168.985 74.3806 166.5 74.3806Z" fill="#F68B1F"/>
<path d="M190.5 74.3806C188.015 74.3806 186 72.5306 186 70.2484C186 67.9662 188.015 66.1161 190.5 66.1161C192.985 66.1161 195 67.9662 195 70.2484C195 72.5306 192.985 74.3806 190.5 74.3806Z" fill="#F68B1F"/>
<path d="M214.5 74.3806C212.015 74.3806 210 72.5306 210 70.2484C210 67.9662 212.015 66.1161 214.5 66.1161C216.985 66.1161 219 67.9662 219 70.2484C219 72.5306 216.985 74.3806 214.5 74.3806Z" fill="#F68B1F"/>
<path d="M238.5 74.3806C236.015 74.3806 234 72.5306 234 70.2484C234 67.9662 236.015 66.1161 238.5 66.1161C240.985 66.1161 243 67.9662 243 70.2484C243 72.5306 240.985 74.3806 238.5 74.3806Z" fill="#F68B1F"/>
<path d="M262.5 74.3806C260.015 74.3806 258 72.5306 258 70.2484C258 67.9662 260.015 66.1161 262.5 66.1161C264.985 66.1161 267 67.9662 267 70.2484C267 72.5306 264.985 74.3806 262.5 74.3806Z" fill="#F68B1F"/>
<path d="M286.5 74.3806C284.015 74.3806 282 72.5306 282 70.2484C282 67.9662 284.015 66.1161 286.5 66.1161C288.985 66.1161 291 67.9662 291 70.2484C291 72.5306 288.985 74.3806 286.5 74.3806Z" fill="#F68B1F"/>
<path d="M60.5 96.4193C58.0147 96.4193 56 94.5693 56 92.2871C56 90.0049 58.0147 88.1548 60.5 88.1548C62.9853 88.1548 65 90.0049 65 92.2871C65 94.5693 62.9853 96.4193 60.5 96.4193Z" fill="#F68B1F"/>
<path d="M84.5 96.4193C82.0147 96.4193 80 94.5693 80 92.2871C80 90.0049 82.0147 88.1548 84.5 88.1548C86.9853 88.1548 89 90.0049 89 92.2871C89 94.5693 86.9853 96.4193 84.5 96.4193Z" fill="#F68B1F"/>
<path d="M108.5 96.4193C106.015 96.4193 104 94.5693 104 92.2871C104 90.0049 106.015 88.1548 108.5 88.1548C110.985 88.1548 113 90.0049 113 92.2871C113 94.5693 110.985 96.4193 108.5 96.4193Z" fill="#F68B1F"/>
<path d="M132.5 96.4193C130.015 96.4193 128 94.5693 128 92.2871C128 90.0049 130.015 88.1548 132.5 88.1548C134.985 88.1548 137 90.0049 137 92.2871C137 94.5693 134.985 96.4193 132.5 96.4193Z" fill="#F68B1F"/>
<path d="M156.5 96.4193C154.015 96.4193 152 94.5693 152 92.2871C152 90.0049 154.015 88.1548 156.5 88.1548C158.985 88.1548 161 90.0049 161 92.2871C161 94.5693 158.985 96.4193 156.5 96.4193Z" fill="#F68B1F"/>
<path d="M180.5 96.4194C178.015 96.4194 176 94.5693 176 92.2871C176 90.0049 178.015 88.1548 180.5 88.1548C182.985 88.1548 185 90.0049 185 92.2871C185 94.5693 182.985 96.4194 180.5 96.4194Z" fill="#F68B1F"/>
<path d="M204.5 96.4194C202.015 96.4194 200 94.5693 200 92.2871C200 90.0049 202.015 88.1548 204.5 88.1548C206.985 88.1548 209 90.0049 209 92.2871C209 94.5693 206.985 96.4194 204.5 96.4194Z" fill="#F68B1F"/>
<path d="M228.5 96.4194C226.015 96.4194 224 94.5693 224 92.2871C224 90.0049 226.015 88.1548 228.5 88.1548C230.985 88.1548 233 90.0049 233 92.2871C233 94.5693 230.985 96.4194 228.5 96.4194Z" fill="#F68B1F"/>
<path d="M252.5 96.4194C250.015 96.4194 248 94.5693 248 92.2871C248 90.0049 250.015 88.1548 252.5 88.1548C254.985 88.1548 257 90.0049 257 92.2871C257 94.5693 254.985 96.4194 252.5 96.4194Z" fill="#F68B1F"/>
<path d="M276.5 96.4194C274.015 96.4194 272 94.5693 272 92.2871C272 90.0049 274.015 88.1548 276.5 88.1548C278.985 88.1548 281 90.0049 281 92.2871C281 94.5693 278.985 96.4194 276.5 96.4194Z" fill="#F68B1F"/>
<path d="M300.5 96.4194C298.015 96.4194 296 94.5693 296 92.2871C296 90.0049 298.015 88.1548 300.5 88.1548C302.985 88.1548 305 90.0049 305 92.2871C305 94.5693 302.985 96.4194 300.5 96.4194Z" fill="#F68B1F"/>
<path d="M72.5 118.458C70.0147 118.458 68 116.608 68 114.326C68 112.044 70.0147 110.194 72.5 110.194C74.9853 110.194 77 112.044 77 114.326C77 116.608 74.9853 118.458 72.5 118.458Z" fill="#F68B1F"/>
<path d="M96.5 118.458C94.0147 118.458 92 116.608 92 114.326C92 112.044 94.0147 110.194 96.5 110.194C98.9853 110.194 101 112.044 101 114.326C101 116.608 98.9853 118.458 96.5 118.458Z" fill="#F68B1F"/>
<path d="M120.5 118.458C118.015 118.458 116 116.608 116 114.326C116 112.044 118.015 110.194 120.5 110.194C122.985 110.194 125 112.044 125 114.326C125 116.608 122.985 118.458 120.5 118.458Z" fill="#F68B1F"/>
<path d="M144.5 118.458C142.015 118.458 140 116.608 140 114.326C140 112.044 142.015 110.194 144.5 110.194C146.985 110.194 149 112.044 149 114.326C149 116.608 146.985 118.458 144.5 118.458Z" fill="#F68B1F"/>
<path d="M168.5 118.458C166.015 118.458 164 116.608 164 114.326C164 112.044 166.015 110.194 168.5 110.194C170.985 110.194 173 112.044 173 114.326C173 116.608 170.985 118.458 168.5 118.458Z" fill="#F68B1F"/>
<path d="M192.5 118.458C190.015 118.458 188 116.608 188 114.326C188 112.044 190.015 110.194 192.5 110.194C194.985 110.194 197 112.044 197 114.326C197 116.608 194.985 118.458 192.5 118.458Z" fill="#F68B1F"/>
<path d="M216.5 118.458C214.015 118.458 212 116.608 212 114.326C212 112.044 214.015 110.194 216.5 110.194C218.985 110.194 221 112.044 221 114.326C221 116.608 218.985 118.458 216.5 118.458Z" fill="#F68B1F"/>
<path d="M240.5 118.458C238.015 118.458 236 116.608 236 114.326C236 112.044 238.015 110.194 240.5 110.194C242.985 110.194 245 112.044 245 114.326C245 116.608 242.985 118.458 240.5 118.458Z" fill="#F68B1F"/>
<path d="M264.5 118.458C262.015 118.458 260 116.608 260 114.326C260 112.044 262.015 110.194 264.5 110.194C266.985 110.194 269 112.044 269 114.326C269 116.608 266.985 118.458 264.5 118.458Z" fill="#F68B1F"/>
<path d="M288.5 118.458C286.015 118.458 284 116.608 284 114.326C284 112.044 286.015 110.194 288.5 110.194C290.985 110.194 293 112.044 293 114.326C293 116.608 290.985 118.458 288.5 118.458Z" fill="#F68B1F"/>
<path d="M312.5 118.458C310.015 118.458 308 116.608 308 114.326C308 112.044 310.015 110.194 312.5 110.194C314.985 110.194 317 112.044 317 114.326C317 116.608 314.985 118.458 312.5 118.458Z" fill="#F68B1F"/>
<path d="M86.5 140.497C84.0147 140.497 82 138.647 82 136.365C82 134.082 84.0147 132.232 86.5 132.232C88.9853 132.232 91 134.082 91 136.365C91 138.647 88.9853 140.497 86.5 140.497Z" fill="#F68B1F"/>
<path d="M110.5 140.497C108.015 140.497 106 138.647 106 136.365C106 134.082 108.015 132.232 110.5 132.232C112.985 132.232 115 134.082 115 136.365C115 138.647 112.985 140.497 110.5 140.497Z" fill="#F68B1F"/>
<path d="M134.5 140.497C132.015 140.497 130 138.647 130 136.365C130 134.082 132.015 132.232 134.5 132.232C136.985 132.232 139 134.082 139 136.365C139 138.647 136.985 140.497 134.5 140.497Z" fill="#F68B1F"/>
<path d="M158.5 140.497C156.015 140.497 154 138.647 154 136.365C154 134.082 156.015 132.232 158.5 132.232C160.985 132.232 163 134.082 163 136.365C163 138.647 160.985 140.497 158.5 140.497Z" fill="#F68B1F"/>
<path d="M182.5 140.497C180.015 140.497 178 138.647 178 136.365C178 134.082 180.015 132.232 182.5 132.232C184.985 132.232 187 134.082 187 136.365C187 138.647 184.985 140.497 182.5 140.497Z" fill="#F68B1F"/>
<path d="M206.5 140.497C204.015 140.497 202 138.647 202 136.365C202 134.082 204.015 132.232 206.5 132.232C208.985 132.232 211 134.082 211 136.365C211 138.647 208.985 140.497 206.5 140.497Z" fill="#F68B1F"/>
<path d="M230.5 140.497C228.015 140.497 226 138.647 226 136.365C226 134.082 228.015 132.232 230.5 132.232C232.985 132.232 235 134.082 235 136.365C235 138.647 232.985 140.497 230.5 140.497Z" fill="#F68B1F"/>
<path d="M254.5 140.497C252.015 140.497 250 138.647 250 136.365C250 134.082 252.015 132.232 254.5 132.232C256.985 132.232 259 134.082 259 136.365C259 138.647 256.985 140.497 254.5 140.497Z" fill="#F68B1F"/>
<path d="M278.5 140.497C276.015 140.497 274 138.647 274 136.365C274 134.082 276.015 132.232 278.5 132.232C280.985 132.232 283 134.082 283 136.365C283 138.647 280.985 140.497 278.5 140.497Z" fill="#F68B1F"/>
<path d="M302.5 140.497C300.015 140.497 298 138.647 298 136.365C298 134.082 300.015 132.232 302.5 132.232C304.985 132.232 307 134.082 307 136.365C307 138.647 304.985 140.497 302.5 140.497Z" fill="#F68B1F"/>
<path d="M326.5 140.497C324.015 140.497 322 138.647 322 136.365C322 134.082 324.015 132.232 326.5 132.232C328.985 132.232 331 134.082 331 136.365C331 138.647 328.985 140.497 326.5 140.497Z" fill="#F68B1F"/>
<path d="M100.5 162.535C98.0147 162.535 96 160.685 96 158.403C96 156.121 98.0147 154.271 100.5 154.271C102.985 154.271 105 156.121 105 158.403C105 160.685 102.985 162.535 100.5 162.535Z" fill="#F68B1F"/>
<path d="M124.5 162.535C122.015 162.535 120 160.685 120 158.403C120 156.121 122.015 154.271 124.5 154.271C126.985 154.271 129 156.121 129 158.403C129 160.685 126.985 162.535 124.5 162.535Z" fill="#F68B1F"/>
<path d="M148.5 162.535C146.015 162.535 144 160.685 144 158.403C144 156.121 146.015 154.271 148.5 154.271C150.985 154.271 153 156.121 153 158.403C153 160.685 150.985 162.535 148.5 162.535Z" fill="#F68B1F"/>
<path d="M172.5 162.535C170.015 162.535 168 160.685 168 158.403C168 156.121 170.015 154.271 172.5 154.271C174.985 154.271 177 156.121 177 158.403C177 160.685 174.985 162.535 172.5 162.535Z" fill="#F68B1F"/>
<path d="M196.5 162.535C194.015 162.535 192 160.685 192 158.403C192 156.121 194.015 154.271 196.5 154.271C198.985 154.271 201 156.121 201 158.403C201 160.685 198.985 162.535 196.5 162.535Z" fill="#F68B1F"/>
<path d="M220.5 162.535C218.015 162.535 216 160.685 216 158.403C216 156.121 218.015 154.271 220.5 154.271C222.985 154.271 225 156.121 225 158.403C225 160.685 222.985 162.535 220.5 162.535Z" fill="#F68B1F"/>
<path d="M244.5 162.535C242.015 162.535 240 160.685 240 158.403C240 156.121 242.015 154.271 244.5 154.271C246.985 154.271 249 156.121 249 158.403C249 160.685 246.985 162.535 244.5 162.535Z" fill="#F68B1F"/>
<path d="M268.5 162.535C266.015 162.535 264 160.685 264 158.403C264 156.121 266.015 154.271 268.5 154.271C270.985 154.271 273 156.121 273 158.403C273 160.685 270.985 162.535 268.5 162.535Z" fill="#F68B1F"/>
<path d="M292.5 162.535C290.015 162.535 288 160.685 288 158.403C288 156.121 290.015 154.271 292.5 154.271C294.985 154.271 297 156.121 297 158.403C297 160.685 294.985 162.535 292.5 162.535Z" fill="#F68B1F"/>
<path d="M316.5 162.535C314.015 162.535 312 160.685 312 158.403C312 156.121 314.015 154.271 316.5 154.271C318.985 154.271 321 156.121 321 158.403C321 160.685 318.985 162.535 316.5 162.535Z" fill="#F68B1F"/>
<path d="M340.5 162.535C338.015 162.535 336 160.685 336 158.403C336 156.121 338.015 154.271 340.5 154.271C342.985 154.271 345 156.121 345 158.403C345 160.685 342.985 162.535 340.5 162.535Z" fill="#F68B1F"/>
<path d="M114.5 184.574C112.015 184.574 110 182.724 110 180.442C110 178.16 112.015 176.31 114.5 176.31C116.985 176.31 119 178.16 119 180.442C119 182.724 116.985 184.574 114.5 184.574Z" fill="#F68B1F"/>
<path d="M138.5 184.574C136.015 184.574 134 182.724 134 180.442C134 178.16 136.015 176.31 138.5 176.31C140.985 176.31 143 178.16 143 180.442C143 182.724 140.985 184.574 138.5 184.574Z" fill="#F68B1F"/>
<path d="M162.5 184.574C160.015 184.574 158 182.724 158 180.442C158 178.16 160.015 176.31 162.5 176.31C164.985 176.31 167 178.16 167 180.442C167 182.724 164.985 184.574 162.5 184.574Z" fill="#F68B1F"/>
<path d="M186.5 184.574C184.015 184.574 182 182.724 182 180.442C182 178.16 184.015 176.31 186.5 176.31C188.985 176.31 191 178.16 191 180.442C191 182.724 188.985 184.574 186.5 184.574Z" fill="#F68B1F"/>
<path d="M210.5 184.574C208.015 184.574 206 182.724 206 180.442C206 178.16 208.015 176.31 210.5 176.31C212.985 176.31 215 178.16 215 180.442C215 182.724 212.985 184.574 210.5 184.574Z" fill="#F68B1F"/>
<path d="M234.5 184.574C232.015 184.574 230 182.724 230 180.442C230 178.16 232.015 176.31 234.5 176.31C236.985 176.31 239 178.16 239 180.442C239 182.724 236.985 184.574 234.5 184.574Z" fill="#F68B1F"/>
<path d="M258.5 184.574C256.015 184.574 254 182.724 254 180.442C254 178.16 256.015 176.31 258.5 176.31C260.985 176.31 263 178.16 263 180.442C263 182.724 260.985 184.574 258.5 184.574Z" fill="#F68B1F"/>
<path d="M282.5 184.574C280.015 184.574 278 182.724 278 180.442C278 178.16 280.015 176.31 282.5 176.31C284.985 176.31 287 178.16 287 180.442C287 182.724 284.985 184.574 282.5 184.574Z" fill="#F68B1F"/>
<path d="M306.5 184.574C304.015 184.574 302 182.724 302 180.442C302 178.16 304.015 176.31 306.5 176.31C308.985 176.31 311 178.16 311 180.442C311 182.724 308.985 184.574 306.5 184.574Z" fill="#F68B1F"/>
<path d="M330.5 184.574C328.015 184.574 326 182.724 326 180.442C326 178.16 328.015 176.31 330.5 176.31C332.985 176.31 335 178.16 335 180.442C335 182.724 332.985 184.574 330.5 184.574Z" fill="#F68B1F"/>
<path d="M354.5 184.574C352.015 184.574 350 182.724 350 180.442C350 178.16 352.015 176.31 354.5 176.31C356.985 176.31 359 178.16 359 180.442C359 182.724 356.985 184.574 354.5 184.574Z" fill="#F68B1F"/>
<path d="M128.5 206.613C126.015 206.613 124 204.763 124 202.481C124 200.198 126.015 198.348 128.5 198.348C130.985 198.348 133 200.198 133 202.481C133 204.763 130.985 206.613 128.5 206.613Z" fill="#F68B1F"/>
<path d="M152.5 206.613C150.015 206.613 148 204.763 148 202.481C148 200.198 150.015 198.348 152.5 198.348C154.985 198.348 157 200.198 157 202.481C157 204.763 154.985 206.613 152.5 206.613Z" fill="#F68B1F"/>
<path d="M176.5 206.613C174.015 206.613 172 204.763 172 202.481C172 200.198 174.015 198.348 176.5 198.348C178.985 198.348 181 200.198 181 202.481C181 204.763 178.985 206.613 176.5 206.613Z" fill="#F68B1F"/>
<path d="M200.5 206.613C198.015 206.613 196 204.763 196 202.481C196 200.198 198.015 198.348 200.5 198.348C202.985 198.348 205 200.198 205 202.481C205 204.763 202.985 206.613 200.5 206.613Z" fill="#F68B1F"/>
<path d="M224.5 206.613C222.015 206.613 220 204.763 220 202.481C220 200.198 222.015 198.348 224.5 198.348C226.985 198.348 229 200.198 229 202.481C229 204.763 226.985 206.613 224.5 206.613Z" fill="#F68B1F"/>
<path d="M248.5 206.613C246.015 206.613 244 204.763 244 202.481C244 200.198 246.015 198.348 248.5 198.348C250.985 198.348 253 200.198 253 202.481C253 204.763 250.985 206.613 248.5 206.613Z" fill="#F68B1F"/>
<path d="M272.5 206.613C270.015 206.613 268 204.763 268 202.481C268 200.198 270.015 198.348 272.5 198.348C274.985 198.348 277 200.198 277 202.481C277 204.763 274.985 206.613 272.5 206.613Z" fill="#F68B1F"/>
<path d="M296.5 206.613C294.015 206.613 292 204.763 292 202.481C292 200.198 294.015 198.348 296.5 198.348C298.985 198.348 301 200.198 301 202.481C301 204.763 298.985 206.613 296.5 206.613Z" fill="#F68B1F"/>
<path d="M320.5 206.613C318.015 206.613 316 204.763 316 202.481C316 200.198 318.015 198.348 320.5 198.348C322.985 198.348 325 200.198 325 202.481C325 204.763 322.985 206.613 320.5 206.613Z" fill="#F68B1F"/>
<path d="M344.5 206.613C342.015 206.613 340 204.763 340 202.481C340 200.198 342.015 198.348 344.5 198.348C346.985 198.348 349 200.198 349 202.481C349 204.763 346.985 206.613 344.5 206.613Z" fill="#F68B1F"/>
<path d="M368.5 206.613C366.015 206.613 364 204.763 364 202.481C364 200.198 366.015 198.348 368.5 198.348C370.985 198.348 373 200.198 373 202.481C373 204.763 370.985 206.613 368.5 206.613Z" fill="#F68B1F"/>
<path d="M142.5 228.652C140.015 228.652 138 226.802 138 224.519C138 222.237 140.015 220.387 142.5 220.387C144.985 220.387 147 222.237 147 224.519C147 226.802 144.985 228.652 142.5 228.652Z" fill="#F68B1F"/>
<path d="M166.5 228.652C164.015 228.652 162 226.802 162 224.519C162 222.237 164.015 220.387 166.5 220.387C168.985 220.387 171 222.237 171 224.519C171 226.802 168.985 228.652 166.5 228.652Z" fill="#F68B1F"/>
<path d="M190.5 228.652C188.015 228.652 186 226.802 186 224.519C186 222.237 188.015 220.387 190.5 220.387C192.985 220.387 195 222.237 195 224.519C195 226.802 192.985 228.652 190.5 228.652Z" fill="#F68B1F"/>
<path d="M214.5 228.652C212.015 228.652 210 226.802 210 224.519C210 222.237 212.015 220.387 214.5 220.387C216.985 220.387 219 222.237 219 224.519C219 226.802 216.985 228.652 214.5 228.652Z" fill="#F68B1F"/>
<path d="M238.5 228.652C236.015 228.652 234 226.802 234 224.519C234 222.237 236.015 220.387 238.5 220.387C240.985 220.387 243 222.237 243 224.519C243 226.802 240.985 228.652 238.5 228.652Z" fill="#F68B1F"/>
<path d="M262.5 228.652C260.015 228.652 258 226.802 258 224.519C258 222.237 260.015 220.387 262.5 220.387C264.985 220.387 267 222.237 267 224.519C267 226.802 264.985 228.652 262.5 228.652Z" fill="#F68B1F"/>
<path d="M286.5 228.652C284.015 228.652 282 226.802 282 224.519C282 222.237 284.015 220.387 286.5 220.387C288.985 220.387 291 222.237 291 224.519C291 226.802 288.985 228.652 286.5 228.652Z" fill="#F68B1F"/>
<path d="M310.5 228.652C308.015 228.652 306 226.802 306 224.519C306 222.237 308.015 220.387 310.5 220.387C312.985 220.387 315 222.237 315 224.519C315 226.802 312.985 228.652 310.5 228.652Z" fill="#F68B1F"/>
<path d="M334.5 228.652C332.015 228.652 330 226.802 330 224.519C330 222.237 332.015 220.387 334.5 220.387C336.985 220.387 339 222.237 339 224.519C339 226.802 336.985 228.652 334.5 228.652Z" fill="#F68B1F"/>
<path d="M358.5 228.652C356.015 228.652 354 226.802 354 224.519C354 222.237 356.015 220.387 358.5 220.387C360.985 220.387 363 222.237 363 224.519C363 226.802 360.985 228.652 358.5 228.652Z" fill="#F68B1F"/>
<path d="M382.5 228.652C380.015 228.652 378 226.802 378 224.519C378 222.237 380.015 220.387 382.5 220.387C384.985 220.387 387 222.237 387 224.519C387 226.802 384.985 228.652 382.5 228.652Z" fill="#F68B1F"/>
<path d="M156.5 250.69C154.015 250.69 152 248.84 152 246.558C152 244.276 154.015 242.426 156.5 242.426C158.985 242.426 161 244.276 161 246.558C161 248.84 158.985 250.69 156.5 250.69Z" fill="#F68B1F"/>
<path d="M180.5 250.69C178.015 250.69 176 248.84 176 246.558C176 244.276 178.015 242.426 180.5 242.426C182.985 242.426 185 244.276 185 246.558C185 248.84 182.985 250.69 180.5 250.69Z" fill="#F68B1F"/>
<path d="M204.5 250.69C202.015 250.69 200 248.84 200 246.558C200 244.276 202.015 242.426 204.5 242.426C206.985 242.426 209 244.276 209 246.558C209 248.84 206.985 250.69 204.5 250.69Z" fill="#F68B1F"/>
<path d="M228.5 250.69C226.015 250.69 224 248.84 224 246.558C224 244.276 226.015 242.426 228.5 242.426C230.985 242.426 233 244.276 233 246.558C233 248.84 230.985 250.69 228.5 250.69Z" fill="#F68B1F"/>
<path d="M252.5 250.69C250.015 250.69 248 248.84 248 246.558C248 244.276 250.015 242.426 252.5 242.426C254.985 242.426 257 244.276 257 246.558C257 248.84 254.985 250.69 252.5 250.69Z" fill="#F68B1F"/>
<path d="M276.5 250.69C274.015 250.69 272 248.84 272 246.558C272 244.276 274.015 242.426 276.5 242.426C278.985 242.426 281 244.276 281 246.558C281 248.84 278.985 250.69 276.5 250.69Z" fill="#F68B1F"/>
<path d="M300.5 250.69C298.015 250.69 296 248.84 296 246.558C296 244.276 298.015 242.426 300.5 242.426C302.985 242.426 305 244.276 305 246.558C305 248.84 302.985 250.69 300.5 250.69Z" fill="#F68B1F"/>
<path d="M324.5 250.69C322.015 250.69 320 248.84 320 246.558C320 244.276 322.015 242.426 324.5 242.426C326.985 242.426 329 244.276 329 246.558C329 248.84 326.985 250.69 324.5 250.69Z" fill="#F68B1F"/>
<path d="M348.5 250.69C346.015 250.69 344 248.84 344 246.558C344 244.276 346.015 242.426 348.5 242.426C350.985 242.426 353 244.276 353 246.558C353 248.84 350.985 250.69 348.5 250.69Z" fill="#F68B1F"/>
<path d="M372.5 250.69C370.015 250.69 368 248.84 368 246.558C368 244.276 370.015 242.426 372.5 242.426C374.985 242.426 377 244.276 377 246.558C377 248.84 374.985 250.69 372.5 250.69Z" fill="#F68B1F"/>
<path d="M396.5 250.69C394.015 250.69 392 248.84 392 246.558C392 244.276 394.015 242.426 396.5 242.426C398.985 242.426 401 244.276 401 246.558C401 248.84 398.985 250.69 396.5 250.69Z" fill="#F68B1F"/>
<path d="M170.5 272.729C168.015 272.729 166 270.879 166 268.597C166 266.315 168.015 264.465 170.5 264.465C172.985 264.465 175 266.315 175 268.597C175 270.879 172.985 272.729 170.5 272.729Z" fill="#F68B1F"/>
<path d="M194.5 272.729C192.015 272.729 190 270.879 190 268.597C190 266.315 192.015 264.465 194.5 264.465C196.985 264.465 199 266.315 199 268.597C199 270.879 196.985 272.729 194.5 272.729Z" fill="#F68B1F"/>
<path d="M218.5 272.729C216.015 272.729 214 270.879 214 268.597C214 266.315 216.015 264.465 218.5 264.465C220.985 264.465 223 266.315 223 268.597C223 270.879 220.985 272.729 218.5 272.729Z" fill="#F68B1F"/>
<path d="M242.5 272.729C240.015 272.729 238 270.879 238 268.597C238 266.315 240.015 264.465 242.5 264.465C244.985 264.465 247 266.315 247 268.597C247 270.879 244.985 272.729 242.5 272.729Z" fill="#F68B1F"/>
<path d="M266.5 272.729C264.015 272.729 262 270.879 262 268.597C262 266.315 264.015 264.465 266.5 264.465C268.985 264.465 271 266.315 271 268.597C271 270.879 268.985 272.729 266.5 272.729Z" fill="#F68B1F"/>
<path d="M290.5 272.729C288.015 272.729 286 270.879 286 268.597C286 266.315 288.015 264.465 290.5 264.465C292.985 264.465 295 266.315 295 268.597C295 270.879 292.985 272.729 290.5 272.729Z" fill="#F68B1F"/>
<path d="M314.5 272.729C312.015 272.729 310 270.879 310 268.597C310 266.315 312.015 264.465 314.5 264.465C316.985 264.465 319 266.315 319 268.597C319 270.879 316.985 272.729 314.5 272.729Z" fill="#F68B1F"/>
<path d="M338.5 272.729C336.015 272.729 334 270.879 334 268.597C334 266.315 336.015 264.465 338.5 264.465C340.985 264.465 343 266.315 343 268.597C343 270.879 340.985 272.729 338.5 272.729Z" fill="#F68B1F"/>
<path d="M362.5 272.729C360.015 272.729 358 270.879 358 268.597C358 266.315 360.015 264.465 362.5 264.465C364.985 264.465 367 266.315 367 268.597C367 270.879 364.985 272.729 362.5 272.729Z" fill="#F68B1F"/>
<path d="M386.5 272.729C384.015 272.729 382 270.879 382 268.597C382 266.315 384.015 264.465 386.5 264.465C388.985 264.465 391 266.315 391 268.597C391 270.879 388.985 272.729 386.5 272.729Z" fill="#F68B1F"/>
<path d="M410.5 272.729C408.015 272.729 406 270.879 406 268.597C406 266.315 408.015 264.465 410.5 264.465C412.985 264.465 415 266.315 415 268.597C415 270.879 412.985 272.729 410.5 272.729Z" fill="#F68B1F"/>
<path d="M184.5 294.768C182.015 294.768 180 292.918 180 290.635C180 288.353 182.015 286.503 184.5 286.503C186.985 286.503 189 288.353 189 290.635C189 292.918 186.985 294.768 184.5 294.768Z" fill="#F68B1F"/>
<path d="M208.5 294.768C206.015 294.768 204 292.918 204 290.635C204 288.353 206.015 286.503 208.5 286.503C210.985 286.503 213 288.353 213 290.635C213 292.918 210.985 294.768 208.5 294.768Z" fill="#F68B1F"/>
<path d="M232.5 294.768C230.015 294.768 228 292.918 228 290.635C228 288.353 230.015 286.503 232.5 286.503C234.985 286.503 237 288.353 237 290.635C237 292.918 234.985 294.768 232.5 294.768Z" fill="#F68B1F"/>
<path d="M256.5 294.768C254.015 294.768 252 292.918 252 290.635C252 288.353 254.015 286.503 256.5 286.503C258.985 286.503 261 288.353 261 290.635C261 292.918 258.985 294.768 256.5 294.768Z" fill="#F68B1F"/>
<path d="M280.5 294.768C278.015 294.768 276 292.918 276 290.635C276 288.353 278.015 286.503 280.5 286.503C282.985 286.503 285 288.353 285 290.635C285 292.918 282.985 294.768 280.5 294.768Z" fill="#F68B1F"/>
<path d="M304.5 294.768C302.015 294.768 300 292.918 300 290.635C300 288.353 302.015 286.503 304.5 286.503C306.985 286.503 309 288.353 309 290.635C309 292.918 306.985 294.768 304.5 294.768Z" fill="#F68B1F"/>
<path d="M328.5 294.768C326.015 294.768 324 292.918 324 290.635C324 288.353 326.015 286.503 328.5 286.503C330.985 286.503 333 288.353 333 290.635C333 292.918 330.985 294.768 328.5 294.768Z" fill="#F68B1F"/>
<path d="M352.5 294.768C350.015 294.768 348 292.918 348 290.635C348 288.353 350.015 286.503 352.5 286.503C354.985 286.503 357 288.353 357 290.635C357 292.918 354.985 294.768 352.5 294.768Z" fill="#F68B1F"/>
<path d="M376.5 294.768C374.015 294.768 372 292.918 372 290.635C372 288.353 374.015 286.503 376.5 286.503C378.985 286.503 381 288.353 381 290.635C381 292.918 378.985 294.768 376.5 294.768Z" fill="#F68B1F"/>
<path d="M400.5 294.768C398.015 294.768 396 292.918 396 290.635C396 288.353 398.015 286.503 400.5 286.503C402.985 286.503 405 288.353 405 290.635C405 292.918 402.985 294.768 400.5 294.768Z" fill="#F68B1F"/>
<path d="M424.5 294.768C422.015 294.768 420 292.918 420 290.635C420 288.353 422.015 286.503 424.5 286.503C426.985 286.503 429 288.353 429 290.635C429 292.918 426.985 294.768 424.5 294.768Z" fill="#F68B1F"/>
<path d="M198.5 316.806C196.015 316.806 194 314.956 194 312.674C194 310.392 196.015 308.542 198.5 308.542C200.985 308.542 203 310.392 203 312.674C203 314.956 200.985 316.806 198.5 316.806Z" fill="#F68B1F"/>
<path d="M222.5 316.806C220.015 316.806 218 314.956 218 312.674C218 310.392 220.015 308.542 222.5 308.542C224.985 308.542 227 310.392 227 312.674C227 314.956 224.985 316.806 222.5 316.806Z" fill="#F68B1F"/>
<path d="M246.5 316.806C244.015 316.806 242 314.956 242 312.674C242 310.392 244.015 308.542 246.5 308.542C248.985 308.542 251 310.392 251 312.674C251 314.956 248.985 316.806 246.5 316.806Z" fill="#F68B1F"/>
<path d="M270.5 316.806C268.015 316.806 266 314.956 266 312.674C266 310.392 268.015 308.542 270.5 308.542C272.985 308.542 275 310.392 275 312.674C275 314.956 272.985 316.806 270.5 316.806Z" fill="#F68B1F"/>
<path d="M294.5 316.806C292.015 316.806 290 314.956 290 312.674C290 310.392 292.015 308.542 294.5 308.542C296.985 308.542 299 310.392 299 312.674C299 314.956 296.985 316.806 294.5 316.806Z" fill="#F68B1F"/>
<path d="M318.5 316.806C316.015 316.806 314 314.956 314 312.674C314 310.392 316.015 308.542 318.5 308.542C320.985 308.542 323 310.392 323 312.674C323 314.956 320.985 316.806 318.5 316.806Z" fill="#F68B1F"/>
<path d="M342.5 316.806C340.015 316.806 338 314.956 338 312.674C338 310.392 340.015 308.542 342.5 308.542C344.985 308.542 347 310.392 347 312.674C347 314.956 344.985 316.806 342.5 316.806Z" fill="#F68B1F"/>
<path d="M366.5 316.806C364.015 316.806 362 314.956 362 312.674C362 310.392 364.015 308.542 366.5 308.542C368.985 308.542 371 310.392 371 312.674C371 314.956 368.985 316.806 366.5 316.806Z" fill="#F68B1F"/>
<path d="M390.5 316.806C388.015 316.806 386 314.956 386 312.674C386 310.392 388.015 308.542 390.5 308.542C392.985 308.542 395 310.392 395 312.674C395 314.956 392.985 316.806 390.5 316.806Z" fill="#F68B1F"/>
<path d="M414.5 316.806C412.015 316.806 410 314.956 410 312.674C410 310.392 412.015 308.542 414.5 308.542C416.985 308.542 419 310.392 419 312.674C419 314.956 416.985 316.806 414.5 316.806Z" fill="#F68B1F"/>
<path d="M438.5 316.806C436.015 316.806 434 314.956 434 312.674C434 310.392 436.015 308.542 438.5 308.542C440.985 308.542 443 310.392 443 312.674C443 314.956 440.985 316.806 438.5 316.806Z" fill="#F68B1F"/>
<path d="M214.5 338.845C212.015 338.845 210 336.995 210 334.713C210 332.431 212.015 330.581 214.5 330.581C216.985 330.581 219 332.431 219 334.713C219 336.995 216.985 338.845 214.5 338.845Z" fill="#F68B1F"/>
<path d="M238.5 338.845C236.015 338.845 234 336.995 234 334.713C234 332.431 236.015 330.581 238.5 330.581C240.985 330.581 243 332.431 243 334.713C243 336.995 240.985 338.845 238.5 338.845Z" fill="#F68B1F"/>
<path d="M262.5 338.845C260.015 338.845 258 336.995 258 334.713C258 332.431 260.015 330.581 262.5 330.581C264.985 330.581 267 332.431 267 334.713C267 336.995 264.985 338.845 262.5 338.845Z" fill="#F68B1F"/>
<path d="M286.5 338.845C284.015 338.845 282 336.995 282 334.713C282 332.431 284.015 330.581 286.5 330.581C288.985 330.581 291 332.431 291 334.713C291 336.995 288.985 338.845 286.5 338.845Z" fill="#F68B1F"/>
<path d="M310.5 338.845C308.015 338.845 306 336.995 306 334.713C306 332.431 308.015 330.581 310.5 330.581C312.985 330.581 315 332.431 315 334.713C315 336.995 312.985 338.845 310.5 338.845Z" fill="#F68B1F"/>
<path d="M334.5 338.845C332.015 338.845 330 336.995 330 334.713C330 332.431 332.015 330.581 334.5 330.581C336.985 330.581 339 332.431 339 334.713C339 336.995 336.985 338.845 334.5 338.845Z" fill="#F68B1F"/>
<path d="M358.5 338.845C356.015 338.845 354 336.995 354 334.713C354 332.431 356.015 330.581 358.5 330.581C360.985 330.581 363 332.431 363 334.713C363 336.995 360.985 338.845 358.5 338.845Z" fill="#F68B1F"/>
<path d="M382.5 338.845C380.015 338.845 378 336.995 378 334.713C378 332.431 380.015 330.581 382.5 330.581C384.985 330.581 387 332.431 387 334.713C387 336.995 384.985 338.845 382.5 338.845Z" fill="#F68B1F"/>
<path d="M406.5 338.845C404.015 338.845 402 336.995 402 334.713C402 332.431 404.015 330.581 406.5 330.581C408.985 330.581 411 332.431 411 334.713C411 336.995 408.985 338.845 406.5 338.845Z" fill="#F68B1F"/>
<path d="M430.5 338.845C428.015 338.845 426 336.995 426 334.713C426 332.431 428.015 330.581 430.5 330.581C432.985 330.581 435 332.431 435 334.713C435 336.995 432.985 338.845 430.5 338.845Z" fill="#F68B1F"/>
<path d="M454.5 338.845C452.015 338.845 450 336.995 450 334.713C450 332.431 452.015 330.581 454.5 330.581C456.985 330.581 459 332.431 459 334.713C459 336.995 456.985 338.845 454.5 338.845Z" fill="#F68B1F"/>
<path d="M228.5 360.884C226.015 360.884 224 359.034 224 356.752C224 354.469 226.015 352.619 228.5 352.619C230.985 352.619 233 354.469 233 356.752C233 359.034 230.985 360.884 228.5 360.884Z" fill="#F68B1F"/>
<path d="M252.5 360.884C250.015 360.884 248 359.034 248 356.752C248 354.469 250.015 352.619 252.5 352.619C254.985 352.619 257 354.469 257 356.752C257 359.034 254.985 360.884 252.5 360.884Z" fill="#F68B1F"/>
<path d="M276.5 360.884C274.015 360.884 272 359.034 272 356.752C272 354.469 274.015 352.619 276.5 352.619C278.985 352.619 281 354.469 281 356.752C281 359.034 278.985 360.884 276.5 360.884Z" fill="#F68B1F"/>
<path d="M300.5 360.884C298.015 360.884 296 359.034 296 356.752C296 354.469 298.015 352.619 300.5 352.619C302.985 352.619 305 354.469 305 356.752C305 359.034 302.985 360.884 300.5 360.884Z" fill="#F68B1F"/>
<path d="M324.5 360.884C322.015 360.884 320 359.034 320 356.752C320 354.469 322.015 352.619 324.5 352.619C326.985 352.619 329 354.469 329 356.752C329 359.034 326.985 360.884 324.5 360.884Z" fill="#F68B1F"/>
<path d="M348.5 360.884C346.015 360.884 344 359.034 344 356.752C344 354.469 346.015 352.619 348.5 352.619C350.985 352.619 353 354.469 353 356.752C353 359.034 350.985 360.884 348.5 360.884Z" fill="#F68B1F"/>
<path d="M372.5 360.884C370.015 360.884 368 359.034 368 356.752C368 354.469 370.015 352.619 372.5 352.619C374.985 352.619 377 354.469 377 356.752C377 359.034 374.985 360.884 372.5 360.884Z" fill="#F68B1F"/>
<path d="M396.5 360.884C394.015 360.884 392 359.034 392 356.752C392 354.469 394.015 352.619 396.5 352.619C398.985 352.619 401 354.469 401 356.752C401 359.034 398.985 360.884 396.5 360.884Z" fill="#F68B1F"/>
<path d="M420.5 360.884C418.015 360.884 416 359.034 416 356.752C416 354.469 418.015 352.619 420.5 352.619C422.985 352.619 425 354.469 425 356.752C425 359.034 422.985 360.884 420.5 360.884Z" fill="#F68B1F"/>
<path d="M444.5 360.884C442.015 360.884 440 359.034 440 356.752C440 354.469 442.015 352.619 444.5 352.619C446.985 352.619 449 354.469 449 356.752C449 359.034 446.985 360.884 444.5 360.884Z" fill="#F68B1F"/>
<path d="M468.5 360.884C466.015 360.884 464 359.034 464 356.752C464 354.469 466.015 352.619 468.5 352.619C470.985 352.619 473 354.469 473 356.752C473 359.034 470.985 360.884 468.5 360.884Z" fill="#F68B1F"/>
<path d="M242.5 382.923C240.015 382.923 238 381.073 238 378.79C238 376.508 240.015 374.658 242.5 374.658C244.985 374.658 247 376.508 247 378.79C247 381.073 244.985 382.923 242.5 382.923Z" fill="#F68B1F"/>
<path d="M266.5 382.923C264.015 382.923 262 381.073 262 378.79C262 376.508 264.015 374.658 266.5 374.658C268.985 374.658 271 376.508 271 378.79C271 381.073 268.985 382.923 266.5 382.923Z" fill="#F68B1F"/>
<path d="M290.5 382.923C288.015 382.923 286 381.073 286 378.79C286 376.508 288.015 374.658 290.5 374.658C292.985 374.658 295 376.508 295 378.79C295 381.073 292.985 382.923 290.5 382.923Z" fill="#F68B1F"/>
<path d="M314.5 382.923C312.015 382.923 310 381.073 310 378.79C310 376.508 312.015 374.658 314.5 374.658C316.985 374.658 319 376.508 319 378.79C319 381.073 316.985 382.923 314.5 382.923Z" fill="#F68B1F"/>
<path d="M338.5 382.923C336.015 382.923 334 381.073 334 378.79C334 376.508 336.015 374.658 338.5 374.658C340.985 374.658 343 376.508 343 378.79C343 381.073 340.985 382.923 338.5 382.923Z" fill="#F68B1F"/>
<path d="M362.5 382.923C360.015 382.923 358 381.073 358 378.79C358 376.508 360.015 374.658 362.5 374.658C364.985 374.658 367 376.508 367 378.79C367 381.073 364.985 382.923 362.5 382.923Z" fill="#F68B1F"/>
<path d="M386.5 382.923C384.015 382.923 382 381.073 382 378.79C382 376.508 384.015 374.658 386.5 374.658C388.985 374.658 391 376.508 391 378.79C391 381.073 388.985 382.923 386.5 382.923Z" fill="#F68B1F"/>
<path d="M410.5 382.923C408.015 382.923 406 381.073 406 378.79C406 376.508 408.015 374.658 410.5 374.658C412.985 374.658 415 376.508 415 378.79C415 381.073 412.985 382.923 410.5 382.923Z" fill="#F68B1F"/>
<path d="M434.5 382.923C432.015 382.923 430 381.073 430 378.79C430 376.508 432.015 374.658 434.5 374.658C436.985 374.658 439 376.508 439 378.79C439 381.073 436.985 382.923 434.5 382.923Z" fill="#F68B1F"/>
<path d="M458.5 382.923C456.015 382.923 454 381.073 454 378.79C454 376.508 456.015 374.658 458.5 374.658C460.985 374.658 463 376.508 463 378.79C463 381.073 460.985 382.923 458.5 382.923Z" fill="#F68B1F"/>
<path d="M482.5 382.923C480.015 382.923 478 381.073 478 378.79C478 376.508 480.015 374.658 482.5 374.658C484.985 374.658 487 376.508 487 378.79C487 381.073 484.985 382.923 482.5 382.923Z" fill="#F68B1F"/>
<path d="M256.5 404.961C254.015 404.961 252 403.111 252 400.829C252 398.547 254.015 396.697 256.5 396.697C258.985 396.697 261 398.547 261 400.829C261 403.111 258.985 404.961 256.5 404.961Z" fill="#F68B1F"/>
<path d="M280.5 404.961C278.015 404.961 276 403.111 276 400.829C276 398.547 278.015 396.697 280.5 396.697C282.985 396.697 285 398.547 285 400.829C285 403.111 282.985 404.961 280.5 404.961Z" fill="#F68B1F"/>
<path d="M304.5 404.961C302.015 404.961 300 403.111 300 400.829C300 398.547 302.015 396.697 304.5 396.697C306.985 396.697 309 398.547 309 400.829C309 403.111 306.985 404.961 304.5 404.961Z" fill="#F68B1F"/>
<path d="M328.5 404.961C326.015 404.961 324 403.111 324 400.829C324 398.547 326.015 396.697 328.5 396.697C330.985 396.697 333 398.547 333 400.829C333 403.111 330.985 404.961 328.5 404.961Z" fill="#F68B1F"/>
<path d="M352.5 404.961C350.015 404.961 348 403.111 348 400.829C348 398.547 350.015 396.697 352.5 396.697C354.985 396.697 357 398.547 357 400.829C357 403.111 354.985 404.961 352.5 404.961Z" fill="#F68B1F"/>
<path d="M376.5 404.961C374.015 404.961 372 403.111 372 400.829C372 398.547 374.015 396.697 376.5 396.697C378.985 396.697 381 398.547 381 400.829C381 403.111 378.985 404.961 376.5 404.961Z" fill="#F68B1F"/>
<path d="M400.5 404.961C398.015 404.961 396 403.111 396 400.829C396 398.547 398.015 396.697 400.5 396.697C402.985 396.697 405 398.547 405 400.829C405 403.111 402.985 404.961 400.5 404.961Z" fill="#F68B1F"/>
<path d="M424.5 404.961C422.015 404.961 420 403.111 420 400.829C420 398.547 422.015 396.697 424.5 396.697C426.985 396.697 429 398.547 429 400.829C429 403.111 426.985 404.961 424.5 404.961Z" fill="#F68B1F"/>
<path d="M448.5 404.961C446.015 404.961 444 403.111 444 400.829C444 398.547 446.015 396.697 448.5 396.697C450.985 396.697 453 398.547 453 400.829C453 403.111 450.985 404.961 448.5 404.961Z" fill="#F68B1F"/>
<path d="M472.5 404.961C470.015 404.961 468 403.111 468 400.829C468 398.547 470.015 396.697 472.5 396.697C474.985 396.697 477 398.547 477 400.829C477 403.111 474.985 404.961 472.5 404.961Z" fill="#F68B1F"/>
<path d="M496.5 404.961C494.015 404.961 492 403.111 492 400.829C492 398.547 494.015 396.697 496.5 396.697C498.985 396.697 501 398.547 501 400.829C501 403.111 498.985 404.961 496.5 404.961Z" fill="#F68B1F"/>
<path d="M270.5 427C268.015 427 266 425.15 266 422.868C266 420.586 268.015 418.736 270.5 418.736C272.985 418.736 275 420.586 275 422.868C275 425.15 272.985 427 270.5 427Z" fill="#F68B1F"/>
<path d="M294.5 427C292.015 427 290 425.15 290 422.868C290 420.586 292.015 418.736 294.5 418.736C296.985 418.736 299 420.586 299 422.868C299 425.15 296.985 427 294.5 427Z" fill="#F68B1F"/>
<path d="M318.5 427C316.015 427 314 425.15 314 422.868C314 420.586 316.015 418.736 318.5 418.736C320.985 418.736 323 420.586 323 422.868C323 425.15 320.985 427 318.5 427Z" fill="#F68B1F"/>
<path d="M342.5 427C340.015 427 338 425.15 338 422.868C338 420.586 340.015 418.736 342.5 418.736C344.985 418.736 347 420.586 347 422.868C347 425.15 344.985 427 342.5 427Z" fill="#F68B1F"/>
<path d="M366.5 427C364.015 427 362 425.15 362 422.868C362 420.586 364.015 418.736 366.5 418.736C368.985 418.736 371 420.586 371 422.868C371 425.15 368.985 427 366.5 427Z" fill="#F68B1F"/>
<path d="M390.5 427C388.015 427 386 425.15 386 422.868C386 420.586 388.015 418.736 390.5 418.736C392.985 418.736 395 420.586 395 422.868C395 425.15 392.985 427 390.5 427Z" fill="#F68B1F"/>
<path d="M414.5 427C412.015 427 410 425.15 410 422.868C410 420.586 412.015 418.736 414.5 418.736C416.985 418.736 419 420.586 419 422.868C419 425.15 416.985 427 414.5 427Z" fill="#F68B1F"/>
<path d="M438.5 427C436.015 427 434 425.15 434 422.868C434 420.586 436.015 418.736 438.5 418.736C440.985 418.736 443 420.586 443 422.868C443 425.15 440.985 427 438.5 427Z" fill="#F68B1F"/>
<path d="M462.5 427C460.015 427 458 425.15 458 422.868C458 420.586 460.015 418.736 462.5 418.736C464.985 418.736 467 420.586 467 422.868C467 425.15 464.985 427 462.5 427Z" fill="#F68B1F"/>
<path d="M486.5 427C484.015 427 482 425.15 482 422.868C482 420.586 484.015 418.736 486.5 418.736C488.985 418.736 491 420.586 491 422.868C491 425.15 488.985 427 486.5 427Z" fill="#F68B1F"/>
<path d="M510.5 427C508.015 427 506 425.15 506 422.868C506 420.586 508.015 418.736 510.5 418.736C512.985 418.736 515 420.586 515 422.868C515 425.15 512.985 427 510.5 427Z" fill="#F68B1F"/>
</g>
</svg>
